<svg width="25" height="24" viewBox="0 0 25 24" fill="currentColor" xmlns="http://www.w3.org/2000/svg">
<path d="M19.885 5.85L13.945 2.42C12.975 1.86 11.775 1.86 10.795 2.42L4.86498 5.85C3.89498 6.41 3.29498 7.45 3.29498 8.58V15.42C3.29498 16.54 3.89498 17.58 4.86498 18.15L10.805 21.58C11.775 22.14 12.975 22.14 13.955 21.58L19.895 18.15C20.865 17.59 21.465 16.55 21.465 15.42V8.58C21.455 7.45 20.855 6.42 19.885 5.85ZM12.375 7.34C13.665 7.34 14.705 8.38 14.705 9.67C14.705 10.96 13.665 12 12.375 12C11.085 12 10.045 10.96 10.045 9.67C10.045 8.39 11.085 7.34 12.375 7.34ZM15.055 16.66H9.69498C8.88498 16.66 8.41498 15.76 8.86498 15.09C9.54498 14.08 10.865 13.4 12.375 13.4C13.885 13.4 15.205 14.08 15.885 15.09C16.335 15.75 15.855 16.66 15.055 16.66Z" fill="black" fill-opacity="0.12"/>
</svg>
