<svg width="148" height="165" viewBox="0 0 148 165" fill="none" xmlns="http://www.w3.org/2000/svg">
<g style="mix-blend-mode:luminosity">
<path d="M143.52 25.22C142.904 23.2457 141.792 21.4623 140.29 20.04C139.442 19.2175 138.448 18.5597 137.36 18.1C136.817 17.8642 136.24 17.7189 135.65 17.67C135.504 17.659 135.356 17.659 135.21 17.67C135.21 17.51 135.21 17.3 135.21 17.04C135.21 16.78 135.15 16.66 135.12 16.43C135.09 16.17 135.039 15.9125 134.97 15.66C134.612 14.3012 134.02 13.0152 133.22 11.86C131.803 9.86552 129.984 8.18962 127.88 6.94004C125.174 5.35338 122.146 4.39638 119.02 4.14003C115.54 3.81352 112.031 4.25387 108.74 5.43004C108.32 5.56004 107.92 5.74004 107.5 5.90004C107.3 5.98004 107.1 6.08003 106.9 6.17003H106.8L106.61 5.90004L106.19 5.38004L105.75 4.88004L105.29 4.40004C104.04 3.18706 102.593 2.19616 101.01 1.47003C98.1218 0.183693 94.9392 -0.296635 91.8 0.0800349C90.4821 0.220036 89.18 0.481138 87.91 0.860034C86.8426 1.16896 85.8077 1.58089 84.82 2.09003C83.5394 2.72195 82.4259 3.647 81.57 4.79004C81.1576 5.36018 80.8806 6.0168 80.76 6.71004C80.6 6.35004 79.98 6.02003 79.04 6.14003C78.44 6.14003 77.29 6.27003 75.72 6.48003C73.7738 6.7294 71.8596 7.18531 70.01 7.84003C68.8556 8.26768 67.7549 8.82811 66.73 9.51003C65.6189 10.2728 64.6366 11.2079 63.82 12.28C62.9456 13.4177 62.3189 14.7257 61.98 16.12C61.818 16.8449 61.7508 17.5878 61.78 18.33C61.7872 18.5174 61.8039 18.7043 61.83 18.89L61.48 19.12C61.3225 19.2083 61.1721 19.3086 61.03 19.42C58.7139 21.1118 56.8996 23.3995 55.78 26.04C54.7543 28.4029 54.3316 30.9835 54.55 33.55C54.7279 35.5694 55.4388 37.5054 56.61 39.16C57.0347 39.7256 57.521 40.2421 58.06 40.7C58.31 40.87 58.51 41.03 58.71 41.15L59.22 41.44C59.5589 41.6038 59.9142 41.7312 60.28 41.82C60.4956 41.8762 60.7172 41.9064 60.94 41.91H61.12C61.1381 42.2166 61.2091 42.5177 61.33 42.8C61.5883 43.4186 61.9577 43.9846 62.42 44.47C63.1981 45.312 64.0861 46.0453 65.06 46.65C66.2829 47.451 67.5994 48.0992 68.98 48.58C70.5125 49.1207 72.1096 49.4569 73.73 49.58C75.3556 49.7113 76.9916 49.6137 78.59 49.29L79.74 49.08C79.9552 48.9948 80.1948 48.9948 80.41 49.08C80.6093 49.2808 80.7778 49.51 80.91 49.76C81.1005 50.0573 81.311 50.3413 81.54 50.61C82.3085 51.5005 83.2556 52.2193 84.32 52.72C84.9222 53.0105 85.567 53.2029 86.23 53.29C86.4659 53.317 86.7041 53.317 86.94 53.29C86.583 53.5699 86.2486 53.8775 85.94 54.21C85.303 54.9137 84.74 55.6811 84.26 56.5C84.0416 56.8504 83.9113 57.2484 83.88 57.66C83.8732 57.9177 83.9288 58.1732 84.0419 58.4047C84.1551 58.6363 84.3225 58.8371 84.53 58.99C84.9227 59.2684 85.3634 59.4718 85.83 59.59C86.26 59.71 86.71 59.83 87.18 59.94C89.2355 60.3515 91.3172 60.6188 93.41 60.74C95.688 60.8718 97.9538 61.1659 100.19 61.62C101.296 61.8708 102.374 62.2292 103.41 62.69C103.66 62.81 103.92 62.92 104.16 63.05H104.26H103.91L103.09 63.2C102.56 63.29 102.03 63.41 101.51 63.52C100.51 63.75 99.51 64 98.59 64.27C96.1233 64.9686 93.7343 65.9168 91.46 67.1C90.16 67.82 89.98 68.1 90.04 68.19C90.1 68.28 90.17 68.27 90.51 68.19C91.1504 68.2645 91.7958 68.2879 92.44 68.26C93.64 68.26 97.05 68.1 101.56 67.88C103.82 67.77 106.33 67.66 109.01 67.5C110.399 67.4224 111.779 67.2386 113.14 66.95C114.555 66.6442 115.908 66.0997 117.14 65.34C118.421 64.5747 119.487 63.498 120.24 62.21C120.333 62.0519 120.417 61.8883 120.49 61.72C120.584 61.5364 120.665 61.3458 120.73 61.15C120.762 60.9916 120.762 60.8285 120.73 60.67C120.696 60.5028 120.624 60.3455 120.52 60.21C120.364 60.0266 120.169 59.8798 119.95 59.78C119.33 59.45 118.72 59.12 118.09 58.86C115.751 57.9167 113.321 57.2131 110.84 56.76C108.62 56.3 106.69 55.93 105.18 55.55C103.67 55.17 102.59 54.85 102.03 54.66L100.81 54.27H100.89C101.345 53.9488 101.755 53.5689 102.11 53.14C102.393 52.7936 102.644 52.422 102.86 52.03C102.986 51.801 103.096 51.5638 103.19 51.32L103.3 51.09H103.35L103.79 51.34C104.15 51.53 104.51 51.72 104.9 51.9C105.697 52.2875 106.519 52.6216 107.36 52.9C109.09 53.4519 110.907 53.679 112.72 53.57C114.265 53.4683 115.774 53.0603 117.16 52.37C117.646 52.1265 118.107 51.8386 118.54 51.51C118.792 51.311 119.03 51.0938 119.25 50.86L119.47 50.62C119.926 50.8537 120.397 51.0574 120.88 51.23C121.969 51.625 123.094 51.9098 124.24 52.08C126.263 52.3953 128.328 52.2932 130.31 51.78C131.541 51.45 132.705 50.9086 133.75 50.18C134.884 49.3788 135.846 48.3588 136.58 47.18C137.38 45.9387 137.88 44.5281 138.04 43.06C138.123 42.3001 138.096 41.5322 137.96 40.78L137.83 40.22L137.76 39.94L137.66 39.67V39.55C140.267 38.1045 142.271 35.7741 143.31 32.98C143.798 31.6784 144.048 30.3 144.05 28.91C144.062 27.6602 143.884 26.4159 143.52 25.22ZM142.41 32.72C141.429 35.2713 139.581 37.3956 137.19 38.72L136.73 38.96L136.49 39.09C136.49 39.09 136.39 39.09 136.39 39.16L136.44 39.28L136.76 40.14C136.823 40.2913 136.87 40.4489 136.9 40.61L137.02 41.09C137.128 41.7513 137.145 42.4242 137.07 43.09C136.912 44.4048 136.457 45.6665 135.74 46.78C135.075 47.8526 134.205 48.7837 133.18 49.52C132.232 50.1945 131.173 50.6956 130.05 51C128.198 51.509 126.262 51.6349 124.36 51.37C123.259 51.229 122.169 51.0084 121.1 50.71C120.5 50.56 120.1 50.43 119.77 50.35C119.788 50.3215 119.797 50.2886 119.797 50.255C119.797 50.2215 119.788 50.1886 119.77 50.16C119.71 50.09 119.62 50.06 119.28 50.24C119.1 50.24 119.03 50.24 119.01 50.3C119.004 50.3125 119.001 50.3262 119.001 50.34C119.001 50.3539 119.004 50.3676 119.01 50.38L118.88 50.47C118.72 50.57 118.47 50.77 118.13 50.99C116.51 52.0096 114.652 52.5918 112.74 52.68C111.048 52.76 109.355 52.5399 107.74 52.03C106.94 51.7835 106.155 51.4897 105.39 51.15L104.33 50.63L103.75 50.31C103.42 50.14 103.1 49.95 102.75 49.77C102.68 50.03 102.61 50.31 102.54 50.54C102.47 50.77 102.4 51.06 102.37 51.12C102.28 51.34 102.19 51.55 102.09 51.74C101.916 52.0901 101.711 52.4247 101.48 52.74C101.179 53.1377 100.844 53.5091 100.48 53.85C99.97 54.37 99.89 54.52 99.97 54.65C100.05 54.78 100.09 54.75 100.33 54.65C100.809 54.9573 101.319 55.2153 101.85 55.42L102.36 55.64L103.07 55.89C103.61 56.08 104.27 56.27 105.07 56.49C106.59 56.92 108.54 57.33 110.74 57.81C111.84 58.06 113 58.33 114.18 58.67C115.408 58.9994 116.608 59.424 117.77 59.94C118.375 60.2031 118.965 60.4969 119.54 60.82C119.623 60.8592 119.701 60.9097 119.77 60.97C119.717 61.1097 119.657 61.2466 119.59 61.38C119.52 61.53 119.43 61.66 119.36 61.8C118.681 62.9301 117.733 63.8748 116.6 64.55C115.447 65.2447 114.187 65.7416 112.87 66.02C111.552 66.3001 110.215 66.4806 108.87 66.56L101.44 67.01C96.94 67.29 93.53 67.53 92.34 67.66L91.92 67.71C94.1735 66.7445 96.4886 65.9294 98.85 65.27C99.76 65.02 100.72 64.78 101.73 64.58C102.23 64.47 102.73 64.36 103.28 64.27L104.07 64.14L105.36 63.95L106.89 63.7H107.04L106.88 63.59L106.54 63.36L105.88 62.92L105.21 62.5C105 62.36 104.68 62.2 104.61 62.16C104.35 62.01 104.07 61.89 103.8 61.76C102.703 61.2732 101.561 60.8948 100.39 60.63C98.1025 60.1633 95.7822 59.8758 93.45 59.77C91.4027 59.6567 89.365 59.4095 87.35 59.03C86.89 58.94 86.46 58.84 86.05 58.73C85.6932 58.6489 85.3543 58.5032 85.05 58.3C84.9486 58.2346 84.8658 58.144 84.8098 58.0371C84.7537 57.9302 84.7262 57.8107 84.73 57.69C84.7538 57.41 84.8428 57.1395 84.99 56.9C85.4297 56.1152 85.9208 55.3602 86.46 54.64C87.2 53.64 87.37 53.38 87.34 53.25C87.31 53.12 87.47 53.17 87.47 53.11C87.47 53.05 87.47 52.99 87.27 52.93C87.07 52.87 86.83 52.79 86.33 52.63C85.7481 52.4617 85.1851 52.2338 84.65 51.95C83.7149 51.4562 82.8911 50.7754 82.23 49.95C82.034 49.7049 81.8537 49.4478 81.69 49.18C81.5071 48.7959 81.2447 48.455 80.92 48.18C80.6972 48.0396 80.4428 47.9571 80.18 47.94C79.9523 47.9357 79.7246 47.9524 79.5 47.99L78.4 48.22C76.8912 48.5065 75.3505 48.5873 73.82 48.46C70.8977 48.2427 68.071 47.3233 65.58 45.78C64.6632 45.2269 63.8112 44.5728 63.04 43.83C62.6237 43.4035 62.258 42.9303 61.95 42.42C61.7 42.02 61.58 41.78 61.49 41.64C61.4 41.5 61.33 41.49 61.26 41.5C61.2313 41.5075 61.2064 41.5253 61.19 41.55C61.15 41.5257 61.106 41.5088 61.06 41.5C60.93 41.44 60.73 41.38 60.49 41.26C60.1642 41.1219 59.8498 40.958 59.55 40.77C58.6537 40.2072 57.8868 39.4608 57.3 38.58C56.2671 37.0216 55.6508 35.2244 55.51 33.36C55.3714 30.8327 55.8692 28.311 56.9576 26.0259C58.046 23.7407 59.6903 21.7651 61.74 20.28C61.8743 20.1754 62.0145 20.0786 62.16 19.99L62.72 19.62L62.95 19.48H63V19.41V19.28L62.95 18.8C62.9401 18.6402 62.9401 18.4799 62.95 18.32C62.925 17.6683 62.9856 17.0161 63.13 16.38C63.4435 15.1274 64.012 13.953 64.8 12.93C65.5439 11.9363 66.4459 11.0715 67.47 10.37C68.4216 9.72352 69.4451 9.18994 70.52 8.78003C72.3021 8.12693 74.1444 7.65129 76.02 7.36003C77.55 7.11003 78.7 6.96003 79.29 6.86003C80.09 6.69003 80.49 6.86004 80.6 6.99004C80.71 7.12004 80.75 7.20003 80.83 7.20003C80.8406 7.20617 80.8527 7.20941 80.865 7.20941C80.8773 7.20941 80.8894 7.20617 80.9 7.20003C80.9 7.27003 80.9 7.29004 80.98 7.30004C81.06 7.31004 81.1 7.30003 81.23 6.97003C81.4797 6.35816 81.8165 5.78558 82.23 5.27004C83.083 4.26694 84.1443 3.46162 85.34 2.91004C86.3011 2.44486 87.306 2.07637 88.34 1.81003C89.5598 1.46534 90.8082 1.23107 92.07 1.11003C95.0406 0.796288 98.041 1.28313 100.76 2.52004C102.24 3.20171 103.593 4.13181 104.76 5.27004C105.05 5.55004 105.32 5.87004 105.59 6.18004L105.96 6.67003L106.54 7.48003C106.59 7.62003 106.71 7.48003 106.8 7.48003L107.09 7.35004L107.53 7.15004C107.73 7.07004 107.92 6.97004 108.11 6.90004C108.5 6.75004 108.89 6.58003 109.29 6.45003C112.433 5.35118 115.774 4.93859 119.09 5.24004C122.072 5.48462 124.964 6.38252 127.56 7.87003C129.562 9.03469 131.302 10.6008 132.67 12.47C133.437 13.5436 134.037 14.727 134.45 15.98C134.534 16.1978 134.601 16.4218 134.65 16.65C134.71 16.86 134.77 17.03 134.81 17.2C134.89 17.53 134.93 17.77 134.98 17.95C135.07 18.31 135.14 18.41 135.22 18.41C135.3 18.41 135.32 18.32 135.34 17.95C135.457 17.9818 135.571 18.0254 135.68 18.08C136.21 18.2785 136.728 18.5089 137.23 18.77C138.211 19.2924 139.102 19.9675 139.87 20.77C141.222 22.1306 142.218 23.8032 142.77 25.64C143.101 26.7703 143.266 27.9424 143.26 29.12C143.18 30.3591 142.893 31.576 142.41 32.72Z" fill="#260D4A"/>
</g>
<path d="M143.13 29.01C143.104 30.2788 142.86 31.5336 142.41 32.7201C141.429 35.2713 139.581 37.3956 137.19 38.7201L136.73 38.9601L136.49 39.0901C136.49 39.0901 136.39 39.0901 136.39 39.1601L136.44 39.2801L136.76 40.1401C136.823 40.2914 136.87 40.4489 136.9 40.6101L137.02 41.0901C137.128 41.7513 137.145 42.4242 137.07 43.0901C136.912 44.4049 136.457 45.6665 135.74 46.7801C135.075 47.8526 134.205 48.7837 133.18 49.5201C132.232 50.1945 131.173 50.6956 130.05 51.0001C128.198 51.5091 126.262 51.6349 124.36 51.3701C123.259 51.229 122.169 51.0085 121.1 50.7101C120.5 50.5601 120.1 50.4301 119.77 50.3501C119.788 50.3215 119.797 50.2886 119.797 50.2551C119.797 50.2215 119.788 50.1886 119.77 50.1601C119.71 50.0901 119.62 50.0601 119.28 50.2401C119.1 50.2401 119.03 50.2401 119.01 50.3001C119.004 50.3125 119.001 50.3262 119.001 50.3401C119.001 50.3539 119.004 50.3676 119.01 50.3801L118.88 50.4701C118.72 50.5701 118.47 50.7701 118.13 50.9901C116.51 52.0096 114.652 52.5919 112.74 52.6801C111.048 52.76 109.355 52.5399 107.74 52.0301C106.94 51.7836 106.155 51.4897 105.39 51.1501L104.33 50.6301L103.75 50.3101C103.42 50.1401 103.1 49.9501 102.75 49.7701C102.68 50.0301 102.61 50.3101 102.54 50.5401C102.47 50.7701 102.4 51.0601 102.37 51.1201C102.28 51.3401 102.19 51.5501 102.09 51.7401C101.916 52.0902 101.711 52.4247 101.48 52.7401C101.179 53.1377 100.844 53.5091 100.48 53.8501C99.97 54.3701 99.89 54.5201 99.97 54.6501C100.05 54.7801 100.09 54.7501 100.33 54.6501C100.809 54.9574 101.319 55.2153 101.85 55.4201L102.36 55.6401L103.07 55.8901C103.61 56.0801 104.27 56.2701 105.07 56.4901C106.59 56.9201 108.54 57.3301 110.74 57.8101C111.84 58.0601 113 58.3301 114.18 58.6701C115.408 58.9994 116.608 59.424 117.77 59.9401C118.375 60.2032 118.965 60.4969 119.54 60.8201C119.623 60.8592 119.701 60.9097 119.77 60.9701C119.717 61.1097 119.657 61.2466 119.59 61.3801C119.52 61.5301 119.43 61.6601 119.36 61.8001C118.681 62.9302 117.733 63.8749 116.6 64.5501C115.447 65.2447 114.187 65.7416 112.87 66.0201C111.552 66.3001 110.215 66.4806 108.87 66.5601L101.44 67.01C96.94 67.29 93.53 67.5301 92.34 67.6601L91.92 67.7101C94.1736 66.7446 96.4886 65.9294 98.85 65.2701C99.76 65.0201 100.72 64.7801 101.73 64.5801C102.23 64.4701 102.73 64.3601 103.28 64.2701L104.07 64.1401L105.36 63.9501L106.89 63.7001H107.04L106.88 63.5901L106.54 63.3601L105.88 62.9201L105.21 62.5001C105 62.3601 104.68 62.2001 104.61 62.1601C104.35 62.0101 104.07 61.8901 103.8 61.7601C102.703 61.2732 101.561 60.8948 100.39 60.6301C98.1025 60.1634 95.7822 59.8758 93.45 59.7701C91.4027 59.6567 89.365 59.4095 87.35 59.0301C86.89 58.9401 86.46 58.8401 86.05 58.7301C85.6932 58.6489 85.3543 58.5032 85.05 58.3001C84.9486 58.2346 84.8658 58.144 84.8098 58.0372C84.7537 57.9303 84.7262 57.8107 84.73 57.6901C84.7538 57.41 84.8428 57.1395 84.99 56.9001C85.4297 56.1152 85.9208 55.3602 86.46 54.6401C87.2 53.6401 87.37 53.3801 87.34 53.2501C87.31 53.1201 87.47 53.1701 87.47 53.1101C87.47 53.0501 87.47 52.9901 87.27 52.9301C87.07 52.8701 86.83 52.7901 86.33 52.6301C85.7481 52.4618 85.1851 52.2339 84.65 51.9501C83.7149 51.4562 82.8911 50.7754 82.23 49.9501C82.0341 49.7049 81.8537 49.4478 81.69 49.1801C81.5072 48.7959 81.2447 48.455 80.92 48.1801C80.6972 48.0396 80.4428 47.9571 80.18 47.9401C79.9523 47.9357 79.7246 47.9524 79.5 47.9901L78.4 48.2201C76.8912 48.5066 75.3505 48.5873 73.82 48.4601C70.8977 48.2427 68.071 47.3234 65.58 45.7801C64.6632 45.2269 63.8112 44.5728 63.04 43.8301C62.6237 43.4035 62.258 42.9304 61.95 42.4201C61.7 42.0201 61.58 41.7801 61.49 41.6401C61.4 41.5001 61.33 41.4901 61.26 41.5001C61.2313 41.5075 61.2064 41.5253 61.19 41.5501C61.15 41.5257 61.106 41.5088 61.06 41.5001C60.93 41.4401 60.73 41.3801 60.49 41.2601C60.1642 41.1219 59.8498 40.9581 59.55 40.7701C58.6537 40.2072 57.8868 39.4608 57.3 38.5801C56.2671 37.0216 55.6508 35.2244 55.51 33.3601C55.3715 30.8327 55.8692 28.311 56.9576 26.0259C58.046 23.7407 59.6904 21.7652 61.74 20.2801C61.8743 20.1754 62.0146 20.0786 62.16 19.9901L62.72 19.6201L62.95 19.4801H63V19.4101V19.2801L62.95 18.8001C62.9401 18.6402 62.9401 18.4799 62.95 18.3201C62.925 17.6683 62.9856 17.0161 63.13 16.3801C63.4435 15.1275 64.012 13.953 64.8 12.9301C65.5439 11.9363 66.4459 11.0715 67.47 10.3701C68.4216 9.72355 69.4451 9.18996 70.52 8.78005C72.3022 8.12695 74.1444 7.65131 76.02 7.36006C77.55 7.11006 78.7 6.96006 79.29 6.86006C80.09 6.69006 80.49 6.86006 80.6 6.99006C80.71 7.12006 80.75 7.20005 80.83 7.20005C80.8406 7.2062 80.8527 7.20944 80.865 7.20944C80.8773 7.20944 80.8894 7.2062 80.9 7.20005C80.9 7.27005 80.9 7.29006 80.98 7.30006C81.06 7.31006 81.1 7.30006 81.23 6.97006C81.4797 6.35818 81.8165 5.7856 82.23 5.27006C83.083 4.26697 84.1443 3.46164 85.34 2.91006C86.3011 2.44488 87.306 2.0764 88.34 1.81005C89.5598 1.46536 90.8082 1.23109 92.07 1.11006C95.0406 0.79631 98.041 1.28315 100.76 2.52006C102.24 3.20173 103.593 4.13183 104.76 5.27006C105.05 5.55006 105.32 5.87006 105.59 6.18006L105.96 6.67005L106.54 7.48005C106.59 7.62005 106.71 7.48005 106.8 7.48005L107.09 7.35006L107.53 7.15006C107.73 7.07007 107.92 6.97007 108.11 6.90006C108.5 6.75006 108.89 6.58005 109.29 6.45005C112.433 5.3512 115.774 4.93862 119.09 5.24006C122.072 5.48465 124.964 6.38254 127.56 7.87005C129.562 9.03471 131.302 10.6008 132.67 12.4701C133.437 13.5437 134.037 14.727 134.45 15.9801C134.534 16.1978 134.601 16.4218 134.65 16.6501C134.71 16.8601 134.77 17.0301 134.81 17.2001C134.89 17.5301 134.93 17.7701 134.98 17.9501C135.07 18.3101 135.14 18.4101 135.22 18.4101C135.3 18.4101 135.32 18.3201 135.34 17.9501C135.457 17.9818 135.571 18.0254 135.68 18.0801C136.21 18.2785 136.728 18.5089 137.23 18.7701C138.211 19.2924 139.102 19.9675 139.87 20.7701C141.222 22.1307 142.218 23.8032 142.77 25.6401C143.046 26.7411 143.168 27.8754 143.13 29.01Z" fill="white"/>
<g style="mix-blend-mode:luminosity">
<path d="M90.11 37.99C90.215 38.0171 90.3251 38.0171 90.4301 37.99L91.1901 37.93L93.4301 37.79L99.5001 37.43C103.83 37.16 108.16 36.83 109.1 36.85H109.5C109.623 36.3133 109.801 35.7906 110.03 35.29C110.27 34.74 110.5 34.2 110.66 33.93C110.516 33.8904 110.369 33.8669 110.22 33.86C109.98 33.86 109.63 33.86 109.22 33.86C108.4 33.86 107.37 33.86 106.35 33.86C104.831 33.8823 103.312 33.8223 101.8 33.68C101.6 33.68 101.51 33.58 101.47 33.52C101.43 33.46 101.31 33.52 101.28 33.52C101.25 33.52 101.22 33.26 101.7 32.7C102.58 31.7947 103.526 30.9557 104.53 30.19C105.99 29.02 107.88 27.68 109.78 26.37C111.68 25.06 113.6 23.78 115.09 22.7C115.739 22.2704 116.357 21.7959 116.94 21.28C117.125 21.1014 117.299 20.911 117.46 20.71C117.55 20.6106 117.622 20.4953 117.67 20.37C117.669 20.3467 117.669 20.3233 117.67 20.3C117.674 20.2403 117.665 20.1804 117.642 20.1249C117.62 20.0694 117.585 20.0198 117.54 19.98H117.01C116.52 19.98 115.13 19.84 113.29 19.77C111.45 19.7 109.15 19.7 106.85 19.77C102.26 19.99 97.6601 20.49 96.6601 20.47H96.2101C96.2101 20.82 95.99 21.54 95.82 22.3C95.72 22.75 95.62 23.21 95.5201 23.57C95.5201 23.71 95.4601 23.79 95.4401 23.84C97.2117 23.6218 98.995 23.5116 100.78 23.51C102.595 23.4508 104.411 23.5009 106.22 23.66C106.62 23.75 106.68 23.84 106.68 23.95C106.68 24.06 106.6 24.18 106.22 24.26C106.035 24.2928 105.848 24.3129 105.66 24.32C105.533 24.4728 105.393 24.6134 105.24 24.74C104.52 25.36 100.92 27.88 97.5201 30.68C95.8101 32.07 94.15 33.51 92.83 34.68C92.17 35.28 91.5801 35.79 91.1601 36.21C90.8637 36.4961 90.5927 36.8072 90.35 37.14C90.2197 37.3306 90.0796 37.5142 89.9301 37.69C89.9447 37.7243 89.9614 37.7577 89.98 37.79C89.98 37.79 90.06 38 90.11 37.99Z" fill="#BDBDBD"/>
</g>
<g style="mix-blend-mode:luminosity">
<path d="M118.25 20.33C118.232 20.2272 118.193 20.1291 118.137 20.0415C118.08 19.9539 118.006 19.8786 117.92 19.82C117.92 19.73 117.74 19.63 117.09 19.46C115.846 19.2174 114.586 19.0636 113.32 19C111.149 18.8687 108.971 18.8687 106.8 19C103.381 19.144 99.9722 19.4778 96.5901 20C96.392 20.0389 96.1978 20.0958 96.01 20.17C95.9599 20.1408 95.9008 20.1308 95.8438 20.1418C95.7868 20.1529 95.7357 20.1842 95.7 20.23C95.3308 20.8447 95.0799 21.523 94.9601 22.23C94.8501 22.7 94.78 23.17 94.73 23.55C94.677 23.7702 94.677 23.9998 94.73 24.22C94.7515 24.2858 94.7855 24.347 94.83 24.4C94.8713 24.4488 94.9183 24.4925 94.9701 24.53C95.0438 24.5711 95.1258 24.595 95.2101 24.6C95.2656 24.6158 95.3245 24.6158 95.3801 24.6C95.9101 24.67 98.38 24.6 100.79 24.6C102.21 24.6 103.63 24.6 104.67 24.52C101.962 26.2213 99.367 28.0952 96.9001 30.13C95.1701 31.53 93.5101 33 92.2201 34.23C91.5801 34.85 91.0101 35.38 90.5901 35.87C90.2726 36.2073 90.0094 36.5919 89.8101 37.01C89.7057 37.219 89.6445 37.4468 89.6301 37.68C89.5521 37.7571 89.5058 37.8605 89.5001 37.97C89.4772 38.0619 89.4772 38.1581 89.5001 38.25C89.5458 38.3703 89.6258 38.4746 89.73 38.55C89.9224 38.6686 90.1441 38.7309 90.3701 38.73H91.1601H93.4101C95.1601 38.68 97.34 38.58 99.51 38.45C103.86 38.18 108.19 37.74 109.1 37.53C109.323 37.4918 109.538 37.421 109.74 37.32C109.778 37.3378 109.819 37.347 109.86 37.347C109.902 37.347 109.943 37.3378 109.98 37.32C110.341 36.8574 110.628 36.3412 110.83 35.79C111.094 35.2558 111.251 34.6747 111.29 34.08C111.274 34.0177 111.235 33.964 111.18 33.93H111.23L111.02 33.7C110.991 33.6561 110.954 33.6187 110.91 33.59C110.715 33.4437 110.489 33.3445 110.25 33.3C109.883 33.2419 109.512 33.2118 109.14 33.21C108.32 33.21 107.29 33.21 106.26 33.15C104.63 33.15 103 33.15 102.18 33.23C102.66 32.87 103.65 32.05 104.98 31.06C106.31 30.07 108.34 28.64 110.25 27.34C112.16 26.04 114.05 24.72 115.53 23.58C116.199 23.1095 116.825 22.5808 117.4 22C117.604 21.78 117.788 21.5424 117.95 21.29C118.081 21.1004 118.161 20.8798 118.18 20.65C118.221 20.5479 118.244 20.4398 118.25 20.33ZM117.68 20.33C117.679 20.3533 117.679 20.3767 117.68 20.4C117.628 20.5233 117.557 20.6379 117.47 20.74C117.309 20.9409 117.135 21.1313 116.95 21.31C116.365 21.8228 115.747 22.2971 115.1 22.73C113.6 23.81 111.7 25.1 109.79 26.4C107.88 27.7 106 29.06 104.54 30.22C103.536 30.9857 102.59 31.8246 101.71 32.73C101.23 33.29 101.2 33.45 101.29 33.55C101.38 33.65 101.38 33.6 101.48 33.55C101.58 33.5 101.61 33.66 101.81 33.71C103.322 33.8522 104.841 33.9123 106.36 33.89C107.36 33.89 108.36 33.89 109.23 33.89C109.65 33.89 110 33.89 110.23 33.89C110.382 33.8978 110.533 33.9213 110.68 33.96C110.443 34.4018 110.229 34.8558 110.04 35.32C109.811 35.8205 109.633 36.3433 109.51 36.88H109.11C108.17 36.88 103.84 37.19 99.51 37.46L93.4401 37.82L91.2 37.96L90.4401 38.02C90.3345 38.0415 90.2256 38.0415 90.1201 38.02C90.0701 38.02 90.0301 38.02 90.0001 37.94C89.9814 37.9077 89.9647 37.8743 89.95 37.84C90.0995 37.6641 90.2398 37.4805 90.3701 37.29C90.6145 36.9555 90.8854 36.6412 91.1801 36.35C91.6001 35.94 92.18 35.42 92.85 34.83C94.17 33.66 95.85 32.22 97.54 30.83C100.94 28.03 104.54 25.5 105.26 24.89C105.413 24.7668 105.551 24.6258 105.67 24.47C105.861 24.4633 106.052 24.4432 106.24 24.41C106.62 24.33 106.7 24.23 106.7 24.1C106.7 23.97 106.64 23.9 106.24 23.82C104.435 23.6504 102.622 23.5969 100.81 23.66C99.0217 23.6614 97.235 23.7716 95.4601 23.99C95.4601 23.99 95.46 23.86 95.54 23.72C95.64 23.36 95.7401 22.9 95.8401 22.45C96.0101 21.69 96.19 20.97 96.23 20.62H96.6801C97.6801 20.62 102.28 20.14 106.87 19.92C109.17 19.8 111.47 19.79 113.31 19.92C115.15 20.05 116.54 20.12 117.03 20.13H117.56C117.6 20.163 117.632 20.2042 117.654 20.2508C117.677 20.2974 117.689 20.3483 117.69 20.4L117.68 20.33Z" fill="#260D4A"/>
</g>
<g style="mix-blend-mode:luminosity">
<path d="M112.48 38.5981C112.56 38.6188 112.644 38.6188 112.724 38.5981L113.306 38.5522L115.019 38.4452L119.661 38.1699C122.972 37.9634 126.284 37.711 127.002 37.7263H127.308C127.402 37.3158 127.538 36.9161 127.714 36.5333C127.897 36.1127 128.073 35.6997 128.195 35.4932C128.086 35.4629 127.973 35.4449 127.859 35.4397C127.675 35.4397 127.408 35.4397 127.094 35.4397C126.467 35.4397 125.679 35.4397 124.899 35.4397C123.738 35.4567 122.576 35.4108 121.42 35.302C121.267 35.302 121.198 35.2255 121.167 35.1796C121.137 35.1338 121.045 35.1796 121.022 35.1796C120.999 35.1796 120.976 34.9808 121.343 34.5525C122.016 33.8602 122.74 33.2186 123.507 32.633C124.624 31.7382 126.069 30.7134 127.522 29.7116C128.976 28.7098 130.444 27.7309 131.583 26.9049C132.08 26.5764 132.552 26.2135 132.998 25.819C133.14 25.6823 133.273 25.5367 133.396 25.3831C133.465 25.307 133.519 25.2189 133.556 25.123C133.555 25.1052 133.555 25.0873 133.556 25.0695C133.56 25.0238 133.553 24.978 133.535 24.9355C133.518 24.8931 133.491 24.8552 133.457 24.8248H133.052C132.677 24.8248 131.614 24.7177 130.207 24.6642C128.8 24.6106 127.041 24.6106 125.282 24.6642C121.771 24.8324 118.254 25.2148 117.489 25.1995H117.145C117.145 25.4672 116.976 26.0178 116.846 26.599C116.77 26.9432 116.693 27.295 116.617 27.5703C116.617 27.6773 116.571 27.7385 116.556 27.7767C117.911 27.6099 119.274 27.5256 120.64 27.5244C122.027 27.4791 123.417 27.5174 124.8 27.6391C125.106 27.7079 125.152 27.7767 125.152 27.8609C125.152 27.945 125.091 28.0368 124.8 28.0979C124.658 28.123 124.515 28.1384 124.372 28.1438C124.275 28.2607 124.167 28.3682 124.05 28.465C123.5 28.9392 120.747 30.8664 118.146 33.0077C116.839 34.0707 115.569 35.172 114.56 36.0668C114.055 36.5256 113.604 36.9156 113.283 37.2368C113.056 37.4556 112.849 37.6936 112.663 37.9481C112.563 38.0938 112.456 38.2342 112.342 38.3687C112.353 38.3949 112.366 38.4205 112.38 38.4452C112.38 38.4452 112.441 38.6058 112.48 38.5981Z" fill="#BDBDBD"/>
</g>
<g style="mix-blend-mode:luminosity">
<path d="M134 25.0925C133.986 25.0139 133.957 24.9389 133.913 24.8719C133.87 24.8049 133.814 24.7473 133.748 24.7024C133.748 24.6336 133.61 24.5571 133.113 24.4271C132.161 24.2416 131.198 24.124 130.23 24.0753C128.569 23.9749 126.904 23.9749 125.243 24.0753C122.629 24.1854 120.022 24.4408 117.435 24.8401C117.284 24.8698 117.135 24.9134 116.992 24.9701C116.953 24.9478 116.908 24.9401 116.865 24.9486C116.821 24.957 116.782 24.9809 116.755 25.016C116.472 25.4861 116.28 26.0048 116.189 26.5455C116.105 26.9049 116.051 27.2644 116.013 27.555C115.972 27.7234 115.972 27.899 116.013 28.0674C116.029 28.1177 116.055 28.1645 116.089 28.205C116.121 28.2424 116.157 28.2758 116.196 28.3045C116.253 28.3359 116.315 28.3542 116.38 28.358C116.422 28.3701 116.467 28.3701 116.51 28.358C116.915 28.4115 118.804 28.358 120.647 28.358C121.733 28.358 122.819 28.358 123.615 28.2968C121.544 29.5979 119.559 31.031 117.672 32.5871C116.349 33.6578 115.08 34.782 114.093 35.7226C113.604 36.1968 113.168 36.6021 112.847 36.9768C112.604 37.2348 112.403 37.5289 112.25 37.8487C112.17 38.0085 112.124 38.1828 112.113 38.3611C112.053 38.42 112.017 38.4991 112.013 38.5828C111.996 38.6532 111.996 38.7267 112.013 38.797C112.048 38.889 112.109 38.9687 112.189 39.0264C112.336 39.1171 112.506 39.1648 112.678 39.1641H113.283H115.003C116.342 39.1258 118.009 39.0493 119.668 38.9499C122.995 38.7434 126.306 38.4069 127.002 38.2463C127.173 38.2171 127.337 38.163 127.492 38.0858C127.521 38.0994 127.552 38.1064 127.584 38.1064C127.615 38.1064 127.647 38.0994 127.675 38.0858C127.952 37.732 128.171 37.3372 128.325 36.9157C128.528 36.5071 128.647 36.0627 128.677 35.6079C128.665 35.5603 128.635 35.5192 128.593 35.4932H128.631L128.471 35.3173C128.449 35.2838 128.42 35.2551 128.387 35.2332C128.238 35.1214 128.065 35.0455 127.882 35.0114C127.601 34.967 127.317 34.944 127.033 34.9426C126.406 34.9426 125.618 34.9426 124.83 34.8967C123.584 34.8967 122.337 34.8967 121.71 34.9579C122.077 34.6826 122.834 34.0555 123.852 33.2983C124.869 32.5412 126.421 31.4476 127.882 30.4534C129.343 29.4592 130.788 28.4498 131.92 27.5779C132.431 27.2181 132.91 26.8138 133.35 26.3696C133.506 26.2014 133.647 26.0197 133.771 25.8266C133.871 25.6816 133.932 25.5129 133.946 25.3372C133.978 25.2591 133.996 25.1764 134 25.0925ZM133.564 25.0925C133.563 25.1103 133.563 25.1282 133.564 25.146C133.524 25.2403 133.47 25.3279 133.403 25.406C133.28 25.5597 133.148 25.7053 133.006 25.8419C132.558 26.2341 132.086 26.5969 131.591 26.9279C130.444 27.7538 128.991 28.7404 127.53 29.7346C126.069 30.7288 124.632 31.7688 123.515 32.6559C122.747 33.2415 122.024 33.8831 121.351 34.5755C120.984 35.0038 120.961 35.1261 121.03 35.2026C121.098 35.2791 121.098 35.2408 121.175 35.2026C121.251 35.1644 121.274 35.2867 121.427 35.325C122.584 35.4337 123.745 35.4797 124.907 35.4626C125.672 35.4626 126.436 35.4626 127.102 35.4626C127.423 35.4626 127.691 35.4626 127.867 35.4626C127.983 35.4686 128.098 35.4866 128.211 35.5162C128.03 35.854 127.866 36.2012 127.721 36.5562C127.546 36.939 127.41 37.3388 127.316 37.7493H127.01C126.291 37.7493 122.98 37.9863 119.668 38.1928L115.026 38.4681L113.313 38.5752L112.732 38.6211C112.651 38.6376 112.568 38.6376 112.487 38.6211C112.449 38.6211 112.418 38.6211 112.395 38.5599C112.381 38.5352 112.368 38.5097 112.357 38.4834C112.472 38.3489 112.579 38.2085 112.678 38.0628C112.865 37.807 113.073 37.5666 113.298 37.3439C113.619 37.0304 114.063 36.6327 114.575 36.1815C115.585 35.2867 116.869 34.1855 118.162 33.1225C120.762 30.9811 123.515 29.0463 124.066 28.5798C124.183 28.4855 124.288 28.3777 124.379 28.2586C124.525 28.2534 124.671 28.2381 124.815 28.2127C125.106 28.1515 125.167 28.075 125.167 27.9756C125.167 27.8762 125.121 27.8227 124.815 27.7615C123.435 27.6318 122.048 27.5909 120.663 27.6391C119.295 27.6402 117.929 27.7245 116.571 27.8915C116.571 27.8915 116.571 27.7921 116.632 27.685C116.709 27.4097 116.785 27.0579 116.862 26.7137C116.992 26.1325 117.129 25.5819 117.16 25.3142H117.504C118.269 25.3142 121.787 24.9472 125.297 24.7789C127.056 24.6871 128.815 24.6795 130.222 24.7789C131.629 24.8783 132.692 24.9319 133.067 24.9395H133.472C133.503 24.9648 133.527 24.9963 133.545 25.0319C133.562 25.0675 133.571 25.1065 133.572 25.146L133.564 25.0925Z" fill="#260D4A"/>
</g>
<g style="mix-blend-mode:luminosity">
<path d="M64.6271 36.0885C64.7321 36.1156 64.8422 36.1156 64.9471 36.0885L65.7072 36.0285L67.9471 35.8885L74.0172 35.5285C78.3472 35.2585 82.6771 34.9285 83.6171 34.9485H84.0172C84.1401 34.4118 84.3177 33.8891 84.5471 33.3885C84.7871 32.8385 85.0172 32.2985 85.1772 32.0285C85.0336 31.9889 84.886 31.9654 84.7372 31.9585C84.4972 31.9585 84.1472 31.9585 83.7372 31.9585C82.9172 31.9585 81.8871 31.9585 80.8671 31.9585C79.3483 31.9809 77.8294 31.9208 76.3171 31.7785C76.1171 31.7785 76.0272 31.6785 75.9872 31.6185C75.9472 31.5585 75.8271 31.6185 75.7971 31.6185C75.7671 31.6185 75.7371 31.3585 76.2171 30.7985C77.0973 29.8932 78.0432 29.0542 79.0471 28.2885C80.5071 27.1185 82.3972 25.7785 84.2971 24.4685C86.1971 23.1585 88.1171 21.8785 89.6071 20.7985C90.2562 20.3689 90.8744 19.8944 91.4572 19.3785C91.6425 19.1999 91.8162 19.0095 91.9771 18.8085C92.0675 18.7091 92.1387 18.5938 92.1871 18.4685C92.1859 18.4452 92.1859 18.4219 92.1871 18.3985C92.1915 18.3388 92.182 18.2789 92.1595 18.2234C92.1369 18.1679 92.1019 18.1183 92.0571 18.0785H91.5271C91.0371 18.0785 89.6471 17.9385 87.8071 17.8685C85.9671 17.7985 83.6671 17.7985 81.3671 17.8685C76.7771 18.0885 72.1772 18.5885 71.1772 18.5685H70.7271C70.7271 18.9185 70.5071 19.6385 70.3371 20.3985C70.2371 20.8485 70.1371 21.3085 70.0371 21.6685C70.0371 21.8085 69.9772 21.8885 69.9572 21.9385C71.7288 21.7203 73.5121 21.6101 75.2971 21.6085C77.1118 21.5493 78.9285 21.5994 80.7372 21.7585C81.1372 21.8485 81.1971 21.9385 81.1971 22.0485C81.1971 22.1585 81.1172 22.2785 80.7372 22.3585C80.5521 22.3913 80.365 22.4114 80.1772 22.4185C80.0505 22.5713 79.9099 22.7119 79.7571 22.8385C79.0371 23.4585 75.4371 25.9785 72.0371 28.7785C70.3271 30.1685 68.6671 31.6085 67.3471 32.7785C66.6871 33.3785 66.0972 33.8885 65.6772 34.3085C65.3808 34.5946 65.1098 34.9058 64.8671 35.2385C64.7368 35.4291 64.5967 35.6127 64.4471 35.7885C64.4618 35.8228 64.4785 35.8562 64.4971 35.8885C64.4971 35.8885 64.5771 36.0985 64.6271 36.0885Z" fill="#BDBDBD"/>
</g>
<g style="mix-blend-mode:luminosity">
<path d="M92.7672 18.4285C92.7491 18.3257 92.7105 18.2276 92.6538 18.14C92.5972 18.0524 92.5235 17.9771 92.4371 17.9185C92.4371 17.8285 92.2571 17.7285 91.6071 17.5585C90.363 17.3159 89.1031 17.1621 87.8371 17.0985C85.6658 16.9672 83.4885 16.9672 81.3171 17.0985C77.8979 17.2425 74.4893 17.5763 71.1071 18.0985C70.909 18.1374 70.7149 18.1943 70.5271 18.2685C70.4769 18.2393 70.4179 18.2293 70.3609 18.2403C70.3039 18.2514 70.2528 18.2827 70.2171 18.3285C69.8479 18.9432 69.5969 19.6215 69.4771 20.3285C69.3671 20.7985 69.2971 21.2685 69.2471 21.6485C69.1941 21.8687 69.1941 22.0983 69.2471 22.3185C69.2686 22.3844 69.3026 22.4455 69.3471 22.4985C69.3884 22.5473 69.4354 22.591 69.4872 22.6285C69.5609 22.6696 69.6429 22.6935 69.7271 22.6985C69.7827 22.7143 69.8416 22.7143 69.8972 22.6985C70.4272 22.7685 72.8971 22.6985 75.3071 22.6985C76.7271 22.6985 78.1471 22.6985 79.1871 22.6185C76.4794 24.3198 73.8841 26.1937 71.4171 28.2285C69.6871 29.6285 68.0272 31.0985 66.7372 32.3285C66.0972 32.9485 65.5271 33.4785 65.1071 33.9685C64.7896 34.3058 64.5265 34.6904 64.3271 35.1085C64.2228 35.3175 64.1616 35.5453 64.1472 35.7785C64.0692 35.8556 64.0228 35.959 64.0172 36.0685C63.9943 36.1604 63.9943 36.2566 64.0172 36.3485C64.0629 36.4688 64.1429 36.5731 64.2471 36.6485C64.4395 36.7671 64.6612 36.8294 64.8871 36.8285H65.6772H67.9272C69.6772 36.7785 71.8571 36.6785 74.0271 36.5485C78.3771 36.2785 82.7071 35.8385 83.6171 35.6285C83.8396 35.5903 84.0553 35.5195 84.2571 35.4185C84.2946 35.4363 84.3356 35.4455 84.3771 35.4455C84.4186 35.4455 84.4596 35.4363 84.4971 35.4185C84.8585 34.9559 85.1453 34.4397 85.3471 33.8885C85.6115 33.3543 85.7678 32.7732 85.8071 32.1785C85.7911 32.1162 85.7517 32.0625 85.6971 32.0285H85.7471L85.5371 31.7985C85.5085 31.7546 85.471 31.7172 85.4272 31.6885C85.2324 31.5423 85.0066 31.443 84.7672 31.3985C84.4 31.3404 84.0289 31.3103 83.6571 31.3085C82.8371 31.3085 81.8071 31.3085 80.7771 31.2485C79.1471 31.2485 77.5171 31.2485 76.6971 31.3285C77.1771 30.9685 78.1671 30.1485 79.4971 29.1585C80.8271 28.1685 82.8572 26.7385 84.7672 25.4385C86.6772 24.1385 88.5672 22.8185 90.0471 21.6785C90.7159 21.208 91.3416 20.6793 91.9171 20.0985C92.1211 19.8785 92.3051 19.6409 92.4671 19.3885C92.5984 19.1989 92.6777 18.9783 92.6971 18.7485C92.7379 18.6464 92.7616 18.5383 92.7672 18.4285ZM92.1971 18.4285C92.1959 18.4518 92.1959 18.4752 92.1971 18.4985C92.1447 18.6218 92.0739 18.7364 91.9872 18.8385C91.8262 19.0395 91.6525 19.2298 91.4671 19.4085C90.8818 19.9213 90.2638 20.3956 89.6171 20.8285C88.1171 21.9085 86.2171 23.1985 84.3071 24.4985C82.3971 25.7985 80.5171 27.1585 79.0571 28.3185C78.0532 29.0842 77.1073 29.9232 76.2271 30.8285C75.7471 31.3885 75.7171 31.5485 75.8071 31.6485C75.8971 31.7485 75.8971 31.6985 75.9971 31.6485C76.0971 31.5985 76.1271 31.7585 76.3271 31.8085C77.8394 31.9507 79.3583 32.0108 80.8771 31.9885C81.8771 31.9885 82.8771 31.9885 83.7471 31.9885C84.1671 31.9885 84.5171 31.9885 84.7471 31.9885C84.8991 31.9963 85.0499 32.0198 85.1971 32.0585C84.9601 32.5003 84.7465 32.9543 84.5571 33.4185C84.3277 33.9191 84.1501 34.4418 84.0271 34.9785H83.6271C82.6871 34.9785 78.3571 35.2885 74.0271 35.5585L67.9572 35.9185L65.7171 36.0585L64.9572 36.1185C64.8516 36.14 64.7427 36.14 64.6371 36.1185C64.5871 36.1185 64.5472 36.1185 64.5172 36.0385C64.4985 36.0062 64.4818 35.9728 64.4671 35.9385C64.6166 35.7626 64.7568 35.579 64.8871 35.3885C65.1316 35.054 65.4025 34.7397 65.6971 34.4485C66.1171 34.0385 66.6971 33.5185 67.3671 32.9285C68.6871 31.7585 70.3671 30.3185 72.0571 28.9285C75.4571 26.1285 79.0571 23.5985 79.7771 22.9885C79.93 22.8653 80.0676 22.7243 80.1871 22.5685C80.3783 22.5618 80.5688 22.5417 80.7571 22.5085C81.1371 22.4285 81.2171 22.3285 81.2171 22.1985C81.2171 22.0685 81.1571 21.9985 80.7571 21.9185C78.9524 21.7489 77.1387 21.6955 75.3271 21.7585C73.5388 21.7599 71.7521 21.8701 69.9771 22.0885C69.9771 22.0885 69.9771 21.9585 70.0571 21.8185C70.1571 21.4585 70.2571 20.9985 70.3571 20.5485C70.5271 19.7885 70.7071 19.0685 70.7471 18.7185H71.1971C72.1971 18.7185 76.7971 18.2385 81.3871 18.0185C83.6871 17.8985 85.9871 17.8885 87.8271 18.0185C89.6671 18.1485 91.0571 18.2185 91.5471 18.2285H92.0771C92.1169 18.2615 92.1491 18.3027 92.1716 18.3493C92.194 18.3959 92.2061 18.4468 92.2072 18.4985L92.1971 18.4285Z" fill="#260D4A"/>
</g>
<g style="mix-blend-mode:luminosity" opacity="0.15">
<path d="M137.53 18.63C137.86 19.48 138.81 20.09 139.32 20.86C139.889 21.7472 140.282 22.735 140.48 23.77C140.943 25.7768 141.027 27.8522 140.73 29.89C140.334 32.0561 139.395 34.0863 138 35.79C137.338 36.5679 136.562 37.2421 135.7 37.79C135.005 38.1387 134.365 38.5867 133.8 39.12C134.75 39.31 134.92 41.84 134.8 42.62C134.66 43.6308 134.297 44.5981 133.739 45.4522C133.181 46.3063 132.44 47.0262 131.57 47.56C130.08 48.6809 128.306 49.363 126.449 49.5291C124.592 49.6952 122.725 49.3387 121.06 48.5C120.4 48.16 119.94 47.5 119.27 47.18C119.03 50.27 112.86 50.59 110.73 50.64C108.596 50.6943 106.471 50.3553 104.46 49.64C103.2 49.15 102.24 48.06 101.04 47.58C101.289 48.2721 101.398 49.0065 101.362 49.741C101.326 50.4755 101.145 51.1956 100.83 51.86C100.45 52.59 98.07 55.02 98.43 55.69C98.88 56.53 102.01 56.75 102.85 56.89C104.78 57.21 106.69 57.33 108.63 57.56C110.82 57.81 113.56 57.87 115.17 59.66C117.94 62.66 111.8 65.24 109.77 65.72C107.298 66.251 104.797 66.6383 102.28 66.88L98.5 67.3C97.8 67.38 96.63 67.3 96.11 67.84C100.396 68.0045 104.688 67.7365 108.92 67.04C112.18 66.42 115.49 65.74 118.18 63.67C118.97 63.06 120.3 61.98 120.18 60.87C119.97 59.24 117.64 59.19 116.43 58.87C112.5 57.93 108.68 56.63 104.74 55.61C104.17 55.46 101.04 55.22 100.74 54.56C100.55 54.08 101.26 53.73 101.56 53.38C102.236 52.597 102.725 51.6702 102.99 50.67C103.39 51.44 104.85 51.67 105.66 52C106.845 52.4284 108.072 52.7334 109.32 52.91C112.01 53.29 114.6 53.4 116.96 51.91C117.605 51.3855 118.31 50.9391 119.06 50.58C119.86 50.34 120.52 50.85 121.27 51.09C123.937 51.6859 126.694 51.764 129.39 51.32C131.461 51.008 133.368 50.0095 134.804 48.4845C136.24 46.9595 137.123 44.9964 137.31 42.91C137.435 42.0043 137.435 41.0857 137.31 40.18C137.2 39.43 137.05 39.38 137.56 38.82C138.44 37.82 139.73 37.14 140.64 36.1C141.521 35.1493 142.246 34.0661 142.79 32.89C143.88 30.0512 143.862 26.9062 142.74 24.08C142.201 22.7908 141.344 21.659 140.25 20.79C139.9 20.48 139.59 20.07 139.25 19.79C138.64 19.31 137.8 19 137.53 18.63Z" fill="#006C94"/>
</g>
<g style="mix-blend-mode:luminosity" opacity="0.15">
<path d="M62.47 19.3201C60.8939 21.1871 59.5507 23.2388 58.47 25.4301C57.2365 28.3564 57.165 31.6428 58.27 34.6201C59.27 37.8801 61.12 40.3101 64.69 40.3801C64.63 43.9501 69.19 45.7701 72.18 46.0401C75.71 46.3501 79.18 45.3401 82.63 45.5401C83.06 47.5401 84.11 49.4801 86.24 50.0901C87.97 50.5901 91.14 50.5101 92.43 51.8501C91.43 53.0701 86.83 55.9901 90.48 56.9801C92.65 57.5701 94.89 57.7701 97.05 58.4501C100.28 59.4501 103.94 60.8301 105.95 63.6301C105.37 62.7701 104.07 62.4301 103.12 62.0301C101.97 61.5401 100.77 60.9601 99.57 60.5801C95.93 59.4201 91.71 59.7601 87.93 59.4301C86.73 59.3301 84.47 59.0901 84.41 57.6001C84.35 56.1101 85.97 54.2401 86.49 53.0501C85.55 53.3401 83.83 52.1501 83.07 51.5601C82.0619 50.6533 81.2488 49.5509 80.68 48.3201C80.41 48.6701 79.95 48.5901 79.44 48.6301C78.13 48.7401 76.84 48.9401 75.53 49.0901C73.4781 49.2567 71.4169 48.9131 69.53 48.0901C67.6973 47.4529 65.9559 46.5789 64.35 45.4901C63.7112 45.0895 63.1235 44.6127 62.6 44.0701C62.3 43.6801 62.23 43.1901 61.96 42.7701C61.36 41.8701 60.52 41.8501 59.52 41.3901C58.4814 40.9102 57.6105 40.13 57.02 39.1501C54.89 35.6801 54.85 32.2601 55.75 28.2801C56.81 23.7901 59.68 20.4101 62.47 19.3201Z" fill="#006C94"/>
</g>
<path d="M116.87 120.31C116.51 117.98 116.16 115.38 115.67 112.62C115.55 111.93 115.42 111.24 115.29 110.53C115.23 110.18 115.17 109.83 115.1 109.47C115.03 109.11 114.94 108.76 114.85 108.4C114.477 106.974 114.03 105.569 113.51 104.19C112.99 102.8 112.41 101.45 111.81 100.12C111.21 98.8032 110.542 97.5182 109.81 96.27C108.468 93.9503 106.647 91.9425 104.47 90.38C102.795 89.1601 100.935 88.2181 98.96 87.59C97.8327 87.2255 96.6693 86.9841 95.49 86.87H94.42C94.07 86.81 93.49 86.74 92.53 86.67C91.07 86.57 86.95 86.43 81.53 86.61C75.1849 86.8234 68.8609 87.4582 62.6 88.51C59.24 89.08 55.92 89.81 52.79 90.59C49.66 91.37 46.72 92.26 44.14 93.18C42.85 93.61 41.64 94.07 40.54 94.49C39.44 94.91 38.45 95.31 37.54 95.71C36.2765 96.2508 35.0924 96.9606 34.02 97.82L33.8 98.01C33.53 98.15 33.17 98.33 32.71 98.59C31.6495 99.2497 30.6309 99.9744 29.66 100.76C27.9658 102.148 26.4117 103.699 25.02 105.39C23.229 107.565 21.7079 109.949 20.49 112.49C19.1188 115.31 18.1526 118.31 17.62 121.4C17.3529 122.968 17.1893 124.551 17.13 126.14C17.13 127.71 17.13 129.25 17.24 130.74C17.3925 133.535 17.7265 136.318 18.24 139.07C18.6463 141.244 19.3708 143.347 20.39 145.31C20.9747 146.439 21.7079 147.485 22.57 148.42C22.8565 148.724 23.164 149.008 23.49 149.27C23.514 149.342 23.5552 149.407 23.61 149.46C23.9313 149.784 24.3028 150.054 24.71 150.26C25.4934 150.68 26.3314 150.99 27.2 151.18C28.7092 151.538 30.2693 151.629 31.81 151.45C33.7743 151.216 35.6884 150.669 37.48 149.83C39.4746 148.939 41.3412 147.786 43.03 146.4C44.6946 144.978 46.1462 143.325 47.34 141.49C48.51 139.78 49.54 138.15 50.59 136.82C51.4608 135.699 52.4686 134.691 53.59 133.82C54.24 133.332 54.9367 132.91 55.67 132.56L56.5 132.16H56.74C57.31 132.08 58.91 131.73 61.03 131.46C63.4944 131.119 65.984 130.995 68.47 131.09C69.7437 131.144 71.0062 131.353 72.23 131.71C73.2939 132.02 74.3077 132.481 75.24 133.08C76.97 134.25 78.13 135.41 78.61 135.74C78.6415 135.773 78.6788 135.8 78.72 135.82C78.9337 136.276 79.1846 136.715 79.47 137.13C80.0266 137.958 80.6275 138.756 81.27 139.52C82.3902 140.888 83.6923 142.095 85.14 143.11C86.071 143.737 87.0794 144.242 88.14 144.61C89.2811 145.002 90.4742 145.221 91.68 145.26C96.6962 145.33 101.67 144.331 106.27 142.33C108.336 141.423 110.289 140.279 112.09 138.92C113.55 137.892 114.82 136.616 115.84 135.15C116.407 134.291 116.839 133.35 117.12 132.36C117.4 131.13 117.36 130.65 117.26 130.49C117.16 130.33 117.32 130.08 117.36 129.84C117.511 128.677 117.565 127.502 117.52 126.33C117.419 124.313 117.202 122.303 116.87 120.31ZM116.46 126.45C116.56 128.05 116.46 129.22 116.46 129.83C116.46 130.73 116.41 131.24 116.46 131.53C116.453 131.57 116.453 131.61 116.46 131.65L116.26 132.15C115.902 133.028 115.445 133.864 114.9 134.64C113.893 135.965 112.677 137.117 111.3 138.05C109.542 139.316 107.651 140.385 105.66 141.24C101.231 143.114 96.4687 144.07 91.66 144.05C90.5681 144.024 89.4862 143.835 88.45 143.49C87.5001 143.159 86.5962 142.709 85.76 142.15C84.3793 141.216 83.1226 140.11 82.02 138.86C81.1 137.86 80.47 137.05 80.12 136.65L79.66 136.15C79.73 136.04 79.66 135.83 79.18 135.15C78.2059 134.023 77.1015 133.016 75.89 132.15C74.874 131.407 73.7467 130.83 72.55 130.44C71.2298 130.029 69.8615 129.794 68.48 129.74C65.9129 129.642 63.3426 129.81 60.81 130.24C59.343 130.444 57.8973 130.778 56.49 131.24C56.2651 131.326 56.0504 131.437 55.85 131.57L55.42 131.69C54.5767 131.975 53.7786 132.379 53.05 132.89C51.8009 133.791 50.6864 134.865 49.74 136.08C47.45 138.8 45.53 142.78 42.27 145.41C39.2454 147.939 35.5995 149.614 31.71 150.26C30.2933 150.452 28.8549 150.415 27.45 150.15C26.6491 149.989 25.863 149.762 25.1 149.47L24.35 149.19C24.13 148.92 23.76 148.51 23.24 147.83C22.5094 146.874 21.8731 145.849 21.34 144.77C20.4313 142.867 19.7886 140.848 19.43 138.77C18.9877 136.062 18.7005 133.331 18.57 130.59C18.49 129.12 18.44 127.59 18.49 126.09C18.547 124.565 18.7041 123.045 18.96 121.54C19.4832 118.565 20.4083 115.676 21.71 112.95C22.8845 110.494 24.3337 108.179 26.03 106.05C27.9296 103.697 30.1129 101.588 32.53 99.77C32.5212 99.787 32.5166 99.8059 32.5166 99.825C32.5166 99.8442 32.5212 99.863 32.53 99.88C32.59 99.88 32.69 99.88 32.96 99.67C33.23 99.46 33.7 99.01 34.59 98.4C35.676 97.6791 36.8318 97.0694 38.04 96.58C38.9 96.22 39.9 95.85 40.99 95.46L42.71 94.84C43.31 94.63 43.93 94.44 44.58 94.22C47.14 93.35 50.06 92.54 53.16 91.74C56.26 90.94 59.56 90.27 62.88 89.74C69.0875 88.6975 75.3522 88.0296 81.64 87.74C87.05 87.48 91.15 87.5 92.64 87.46C93.18 87.46 93.64 87.46 93.93 87.39L94.38 87.47L95.5 87.68C96.6072 87.8913 97.6969 88.1854 98.76 88.56C100.607 89.2211 102.344 90.1584 103.91 91.34C105.926 92.8438 107.611 94.7467 108.86 96.93C109.54 98.11 110.14 99.38 110.73 100.68C111.32 101.98 111.88 103.32 112.39 104.68C112.9 106.04 113.33 107.4 113.69 108.77C113.88 109.45 114 110.15 114.13 110.84C114.26 111.53 114.38 112.22 114.5 112.9C115 115.6 115.39 118.23 115.78 120.53C116.17 122.83 116.36 124.85 116.46 126.45Z" fill="#260D4A"/>
<path d="M50.95 119.84C50.9722 119.907 50.9774 119.979 50.9652 120.049C50.953 120.119 50.9237 120.184 50.88 120.24C50.8496 120.312 50.8046 120.376 50.7477 120.43C50.6909 120.483 50.6236 120.524 50.55 120.55C50.0382 120.488 49.5446 120.321 49.1 120.06C48.6572 119.868 48.2323 119.637 47.83 119.37C47.71 120.23 47.54 121.16 47.3 122.15C46.7979 124.235 45.9675 126.226 44.84 128.05C44.71 128.27 44.56 128.49 44.42 128.7C45.3794 129.491 46.1513 130.485 46.68 131.61C46.6835 131.682 46.6677 131.753 46.6342 131.816C46.6008 131.879 46.551 131.933 46.49 131.97C46.4293 132.024 46.3578 132.065 46.2802 132.089C46.2026 132.113 46.1206 132.12 46.04 132.11C45.1249 131.412 44.3711 130.526 43.83 129.51C42.73 130.957 41.3744 132.191 39.83 133.15C39.2017 133.531 38.5303 133.837 37.83 134.06C37.9457 135.181 37.8542 136.313 37.56 137.4C37.512 137.455 37.4514 137.497 37.3835 137.523C37.3155 137.549 37.2423 137.558 37.17 137.55C37.0895 137.553 37.0093 137.539 36.935 137.508C36.8607 137.477 36.7941 137.43 36.74 137.37C36.5337 136.354 36.5337 135.306 36.74 134.29H36.28C34.9812 134.318 33.7164 133.874 32.72 133.04C31.8068 132.293 31.0836 131.341 30.61 130.26C30.4276 129.851 30.2739 129.43 30.15 129C29.3639 129.499 28.4872 129.839 27.57 130C27.5025 129.981 27.4407 129.945 27.3901 129.896C27.3396 129.847 27.3018 129.787 27.28 129.72C27.236 129.657 27.2061 129.585 27.1923 129.509C27.1785 129.433 27.1811 129.355 27.2 129.28C27.9719 128.626 28.881 128.155 29.86 127.9L29.74 127.28C29.3171 124.724 29.2733 122.119 29.61 119.55C29.87 118 30.06 117.88 30.18 117.9C30.3 117.92 30.44 118.13 30.42 119.59C30.317 122.082 30.4678 124.578 30.87 127.04C31.1102 128.962 32.0286 130.735 33.46 132.04C34.2253 132.695 35.2025 133.051 36.21 133.04C37.2786 132.966 38.3109 132.622 39.21 132.04C41.0945 130.864 42.6823 129.27 43.85 127.38C44.9199 125.667 45.7257 123.803 46.24 121.85C46.652 120.316 46.9396 118.751 47.1 117.17C47.25 115.88 47.3 114.92 47.35 114.42C47.49 112.9 47.6 112.66 47.74 112.66C47.88 112.66 48.07 112.93 48.16 114.42C48.2169 115.356 48.2169 116.294 48.16 117.23C48.16 117.62 48.09 118.07 48.04 118.53C48.04 118.53 48.04 118.48 48.09 118.47C48.6545 118.433 49.2174 118.562 49.71 118.84C50.2006 119.064 50.6269 119.408 50.95 119.84Z" fill="#260D4A"/>
<path d="M106 120.79C105.966 120.863 105.916 120.927 105.854 120.977C105.792 121.028 105.718 121.063 105.64 121.08C105.026 120.96 104.446 120.707 103.94 120.34C103.595 120.138 103.261 119.918 102.94 119.68C102.6 119.43 102.67 119.41 102.6 119.34C102.541 119.255 102.497 119.16 102.47 119.06C102.465 119.03 102.465 119 102.47 118.97C102.42 119.08 102.38 119.19 102.32 119.31C101.44 121.273 100.267 123.09 98.84 124.7C98.1847 125.423 97.4724 126.092 96.71 126.7C96.998 127.011 97.2589 127.345 97.49 127.7C97.59 127.86 97.69 128.01 97.78 128.17C97.8409 128.287 97.9076 128.4 97.98 128.51C98.051 128.593 98.0993 128.693 98.12 128.8C98.171 128.917 98.2144 129.037 98.25 129.16C98.25 129.32 98.31 129.49 98.09 129.61C97.9583 129.662 97.8118 129.662 97.68 129.61C97.4895 129.553 97.3126 129.458 97.16 129.33C97.0156 129.19 96.8818 129.04 96.76 128.88L96.45 128.43C96.2148 128.073 96.0076 127.699 95.83 127.31C94.9131 127.926 93.8989 128.382 92.83 128.66C91.5589 128.987 90.2179 128.913 88.99 128.45C87.9855 128.033 87.0844 127.402 86.35 126.6C86.25 126.91 86.06 127.35 85.87 127.79C85.6805 128.331 85.4108 128.84 85.07 129.3C85.0073 129.329 84.9391 129.344 84.87 129.344C84.801 129.344 84.7328 129.329 84.67 129.3C84.5916 129.287 84.5171 129.257 84.4515 129.212C84.3859 129.167 84.3308 129.108 84.29 129.04C84.2593 128.428 84.3977 127.819 84.69 127.28C84.8387 126.929 85.023 126.594 85.24 126.28C85.3484 126.077 85.5025 125.903 85.69 125.77C84.565 124.103 83.8238 122.208 83.52 120.22C83.45 119.82 83.39 119.44 83.33 119.06C83 119.29 82.48 119.59 81.97 119.89C81.3977 120.294 80.7802 120.629 80.13 120.89C80.0565 120.896 79.9826 120.883 79.9159 120.851C79.8491 120.819 79.792 120.771 79.75 120.71C79.6925 120.652 79.6505 120.58 79.6278 120.502C79.6051 120.423 79.6024 120.34 79.62 120.26C80.06 119.664 80.6315 119.179 81.29 118.84C81.8763 118.487 82.5091 118.218 83.17 118.04C82.895 116.234 82.7114 114.415 82.62 112.59C82.62 111.03 82.72 110.87 82.85 110.86C82.98 110.85 83.18 111.03 83.43 112.49C83.62 113.49 83.93 116.32 84.65 120C84.9603 121.968 85.7502 123.829 86.95 125.42C87.607 126.23 88.4561 126.862 89.42 127.26C90.402 127.643 91.4801 127.706 92.5 127.44C93.5777 127.177 94.5957 126.712 95.5 126.07C96.4009 125.436 97.2322 124.709 97.98 123.9C98.6908 123.121 99.3363 122.285 99.91 121.4C100.445 120.584 100.923 119.732 101.34 118.85C102.391 116.562 103.218 114.178 103.81 111.73C104.22 110.24 104.36 110.03 104.51 110.05C104.66 110.07 104.78 110.38 104.61 111.87C104.267 114.149 103.642 116.376 102.75 118.5C102.864 118.465 102.986 118.465 103.1 118.5C103.273 118.54 103.441 118.6 103.6 118.68C103.944 118.847 104.278 119.034 104.6 119.24C105.165 119.535 105.672 119.928 106.1 120.4C106.116 120.468 106.116 120.54 106.098 120.607C106.081 120.675 106.047 120.738 106 120.79Z" fill="#260D4A"/>
<path d="M145.08 128.2C143.849 125.729 142.295 123.433 140.46 121.37C138.643 119.328 136.685 117.417 134.6 115.65C132.6 113.93 130.7 112.36 129 110.95C125.6 108.14 123 106.04 122.05 105.34C121.663 105.05 121.259 104.783 120.84 104.54C120.116 101.911 119.152 99.3532 117.96 96.9C117.093 95.1252 116.09 93.4201 114.96 91.8C113.855 90.1997 112.603 88.7065 111.22 87.34C109.902 86.0148 108.4 84.8866 106.76 83.99C105.241 83.1857 103.62 82.5935 101.94 82.23C100.37 81.88 98.88 81.68 97.53 81.5C96.18 81.32 94.94 81.21 93.85 81.11C91.67 80.91 90.05 80.83 89.21 80.8C88.413 80.7704 87.615 80.7871 86.82 80.85L85.6 80.72L84.21 80.63H82.03H80.68H79.19C78.14 80.63 77 80.63 75.79 80.73C64.4892 81.2735 53.3328 83.5014 42.69 87.34C41.54 87.73 40.49 88.17 39.52 88.55C38.55 88.93 37.66 89.3 36.89 89.64L34.89 90.52C34.35 90.79 33.89 90.99 33.64 91.15C33.05 91.46 32.64 91.7 32.38 91.87C31.6943 92.0319 31.0249 92.2561 30.38 92.54L29.67 92.84L28.76 93.32C27.9286 93.7588 27.1239 94.2463 26.35 94.78C24.1438 96.3235 22.1675 98.1719 20.48 100.27C19.96 100.86 19.48 101.53 19.01 102.2C18.77 102.53 18.55 102.89 18.32 103.2C18.09 103.51 17.85 103.91 17.64 104.29C16.7171 105.836 15.9148 107.451 15.24 109.12C14.5245 110.869 13.9461 112.671 13.51 114.51C13.0509 116.389 12.7168 118.297 12.51 120.22C11.961 125.205 11.961 130.235 12.51 135.22C12.2592 135.207 12.0082 135.24 11.77 135.32C10.589 135.735 9.46903 136.307 8.44003 137.02C7.67003 137.52 6.84 138.12 5.98 138.77C5.12 139.42 4.23001 140.14 3.39001 140.93C2.54319 141.728 1.80367 142.632 1.19003 143.62C0.636936 144.541 0.266799 145.559 0.0999984 146.62C-0.014544 147.425 -0.0380023 148.24 0.0300216 149.05C0.0580968 149.501 0.121629 149.949 0.220024 150.39C0.360024 150.95 0.490008 151.1 0.610008 151.14C0.793726 151.814 1.045 152.467 1.36001 153.09C2.00501 154.407 2.83322 155.626 3.82 156.71C5.52674 158.616 7.55825 160.204 9.82 161.4C12.7246 162.92 15.8775 163.909 19.13 164.32C22.7108 164.769 26.3315 164.803 29.92 164.42C33.55 164.08 37.13 163.42 40.52 162.88C43.91 162.34 47.1 161.8 49.99 161.48C52.499 161.247 54.9842 160.805 57.42 160.16C58.838 159.785 60.1999 159.224 61.47 158.49C62.0106 158.174 62.5167 157.802 62.98 157.38C63.06 157.38 63.17 157.38 63.31 157.27C64.1579 156.929 65.0348 156.664 65.93 156.48C67.6276 156.139 69.3655 156.045 71.09 156.2C74.146 156.532 77.1785 157.053 80.17 157.76C87.24 159.17 96.17 160.85 105.27 160.54C109.729 160.391 114.164 159.808 118.51 158.8C122.424 157.904 126.249 156.659 129.94 155.08C132.82 153.859 135.581 152.376 138.19 150.65C139.686 149.661 141.1 148.554 142.42 147.34C143.087 146.73 143.696 146.061 144.24 145.34L144.3 145.25C144.669 144.955 145.005 144.619 145.3 144.25C145.962 143.344 146.459 142.328 146.77 141.25C147.021 140.388 147.185 139.504 147.26 138.61C147.359 137.549 147.359 136.481 147.26 135.42C146.96 132.905 146.222 130.461 145.08 128.2ZM13.74 120.33C13.9555 118.457 14.2895 116.6 14.74 114.77C15.1573 112.986 15.7123 111.238 16.4 109.54C17.6393 106.442 19.3237 103.542 21.4 100.93C23.0046 98.8929 24.8784 97.083 26.97 95.55C27.7012 95.0217 28.4588 94.531 29.24 94.08L30.1 93.57L30.76 93.24C31.48 92.83 32.01 92.6 32.37 92.42C32.9202 92.2604 33.4611 92.0701 33.99 91.85L35.27 91.33L37.27 90.54C38.04 90.23 38.92 89.88 39.9 89.54C40.88 89.2 41.9 88.78 43.07 88.41C53.6552 84.7617 64.6851 82.5617 75.86 81.87C77.05 81.78 78.18 81.76 79.22 81.71L80.7 81.65H82.03L84.19 81.6H85.58C86.1825 81.594 86.7839 81.5472 87.38 81.46C87.81 81.52 88.38 81.6 89.15 81.68L93.75 82.18C94.84 82.31 96.06 82.46 97.4 82.66C98.74 82.86 100.19 83.07 101.69 83.43C103.264 83.7892 104.781 84.3611 106.2 85.13C107.728 85.9912 109.125 87.0653 110.35 88.32C112.992 91.0415 115.183 94.1675 116.84 97.58C118.468 101.025 119.706 104.64 120.53 108.36C121.37 111.96 122.01 115.44 122.6 118.52C123.19 121.6 123.6 124.32 123.84 126.52C124.08 128.72 124.21 130.27 124.27 131.1C124.36 132.1 124.42 132.73 124.48 133.1C124.54 133.47 124.34 133.84 124.24 134.36C123.981 135.655 123.568 136.913 123.01 138.11C122.053 140.198 120.634 142.041 118.86 143.5C116.521 145.336 113.843 146.696 110.98 147.5C107.77 148.434 104.489 149.103 101.17 149.5C97.8544 149.923 94.5112 150.09 91.17 150C87.94 149.9 84.85 149.69 82.45 148.63C80.3903 147.679 78.6878 146.095 77.59 144.11C76.59 142.52 75.81 141.3 75.33 140.72C75.0435 140.344 74.7329 139.986 74.4 139.65C74.439 139.631 74.4706 139.599 74.49 139.56C74.57 139.45 74.56 139.29 74.06 138.84C73.97 138.77 73.85 138.67 73.68 138.56L73.06 138.18C72.7886 138.011 72.5044 137.864 72.21 137.74C71.8662 137.566 71.5122 137.412 71.15 137.28C69.3608 136.61 67.4702 136.252 65.56 136.22C63.6447 136.193 61.7394 136.501 59.93 137.13C59.566 137.254 59.2088 137.398 58.86 137.56C58.564 137.68 58.2766 137.82 58 137.98C57.75 138.12 57.53 138.24 57.36 138.35L56.99 138.63C56.61 138.97 56.53 139.14 56.56 139.27C56.2886 139.443 56.0311 139.637 55.79 139.85C55.0579 140.525 54.416 141.291 53.88 142.13C53.09 143.27 52.28 144.81 51.23 146.41C50.0551 148.148 48.6142 149.69 46.96 150.98C45.1161 152.431 43.0758 153.612 40.9 154.49C38.7183 155.388 36.4496 156.059 34.13 156.49C32.0499 156.896 29.9389 157.124 27.82 157.17C26.1945 157.209 24.5717 157.017 23 156.6C22.1129 156.341 21.2497 156.007 20.42 155.6L19.55 155.16C19.44 155 19.28 154.81 19.09 154.52L18.71 153.99L18.26 153.29C17.4799 152.027 16.8331 150.687 16.33 149.29C15.4682 146.825 14.8617 144.279 14.52 141.69C13.64 135.52 12.83 127.86 13.74 120.33ZM15.42 149.58C15.9789 151.029 16.7216 152.4 17.63 153.66C17.83 153.89 18 154.11 18.16 154.31L18.62 154.79L18.78 154.96C18.8022 155.042 18.8433 155.117 18.9 155.18C19.231 155.573 19.6226 155.91 20.06 156.18C20.8961 156.725 21.8051 157.149 22.76 157.44C24.4143 157.954 26.1378 158.21 27.87 158.2C30.0644 158.184 32.253 157.974 34.41 157.57C36.8076 157.153 39.1541 156.483 41.41 155.57C43.6902 154.639 45.8252 153.386 47.75 151.85C49.493 150.465 50.9963 148.803 52.2 146.93C53.28 145.23 54.02 143.69 54.74 142.57C55.2158 141.776 55.7613 141.027 56.37 140.33C56.85 139.79 57.16 139.48 57.37 139.28H57.44C57.5785 139.232 57.7124 139.172 57.84 139.1L58.48 138.84C58.7534 138.714 59.0338 138.604 59.32 138.51C59.63 138.41 59.96 138.27 60.32 138.17C63.7444 137.128 67.409 137.184 70.8 138.33C71.17 138.43 71.5 138.58 71.8 138.69C72.0842 138.788 72.3615 138.905 72.63 139.04L73.26 139.31L73.59 139.46C73.77 139.74 74.12 140.24 74.71 141.16C75.1 141.77 75.78 142.98 76.77 144.64C77.3428 145.6 78.013 146.498 78.77 147.32C79.2153 147.801 79.7078 148.237 80.24 148.62C80.8165 149.011 81.4293 149.346 82.07 149.62C84.74 150.81 87.96 151.03 91.23 151.15C94.6373 151.251 98.0473 151.091 101.43 150.67C104.817 150.248 108.162 149.542 111.43 148.56C114.442 147.702 117.248 146.243 119.68 144.27C121.555 142.674 123.034 140.665 124 138.4C124.553 137.126 124.92 135.779 125.09 134.4C125.186 133.697 125.186 132.983 125.09 132.28C125.09 131.93 125.09 131.49 125.09 130.94C125.09 130.09 125.09 128.47 124.84 126.27C124.59 124.07 124.26 121.33 123.72 118.22C123.62 117.66 123.52 117.09 123.42 116.51C124.78 117.83 129.42 122.04 133.82 126.51C134.99 127.71 136.13 128.91 137.22 130.07C138.31 131.23 139.32 132.33 140.15 133.34C140.644 133.936 141.098 134.564 141.51 135.22C141.31 135.62 140.98 136.32 140.35 137.5C139.553 139.009 138.59 140.424 137.48 141.72C136.602 142.749 135.617 143.681 134.54 144.5C133.244 145.467 131.849 146.295 130.38 146.97C127.19 148.49 123.63 150.27 119.74 151.71C117.767 152.457 115.732 153.033 113.66 153.43L112.08 153.74C111.55 153.83 111.01 153.87 110.48 153.94L108.86 154.13L107.23 154.2C102.931 154.337 98.6286 154.103 94.37 153.5C90.23 152.98 86.3 152.33 82.79 151.88C81.02 151.63 79.36 151.47 77.84 151.3L75.64 151.13C74.95 151.07 74.29 151.04 73.64 151.03C71.8879 150.936 70.1321 150.936 68.38 151.03C67.453 151.104 66.5312 151.234 65.62 151.42C65.27 151.42 64.79 151.52 64.12 151.63C62.71 151.86 58.76 152.78 53.65 154.29C48.54 155.8 42.22 157.76 35.73 158.74C32.5568 159.246 29.3397 159.424 26.13 159.27C23.2807 159.138 20.4605 158.637 17.74 157.78C15.6155 157.088 13.5812 156.144 11.68 154.97C10.5966 154.284 9.56093 153.526 8.58001 152.7L7.63003 151.91C7.44573 151.739 7.25208 151.579 7.05001 151.43C6.95818 151.357 6.85736 151.297 6.75002 151.25C6.75002 151.25 6.84001 151.15 6.89001 151.1C7.67001 150.26 8.63 149.18 9.57 148.1C10.51 147.02 11.46 145.98 12.25 145.17C13.04 144.36 13.52 143.89 13.76 143.6C14.1264 145.641 14.6822 147.643 15.42 149.58ZM146.16 138.5C146.1 139.323 145.969 140.139 145.77 140.94C145.512 141.941 145.115 142.9 144.59 143.79C144.18 144.5 143.87 144.89 143.72 145.14L143.65 145.26C143.28 145.56 142.73 146.03 141.86 146.73C140.496 147.833 139.07 148.858 137.59 149.8C134.997 151.437 132.267 152.846 129.43 154.01C121.727 157.211 113.507 158.987 105.17 159.25C96.26 159.55 87.4 157.92 80.34 156.59C77.2989 155.907 74.2153 155.429 71.11 155.16C69.287 155.034 67.4558 155.21 65.69 155.68C64.8836 155.904 64.1126 156.241 63.4 156.68C63.35 156.63 63.26 156.63 62.97 156.77C62.68 156.91 62.11 157.27 61.06 157.77C59.798 158.373 58.4778 158.845 57.12 159.18C54.716 159.729 52.2768 160.109 49.82 160.32C46.92 160.6 43.66 161.08 40.27 161.64C36.88 162.2 33.33 162.81 29.76 163.14C26.2684 163.514 22.7455 163.487 19.26 163.06C16.1472 162.683 13.1247 161.762 10.33 160.34C8.17281 159.221 6.22166 157.743 4.56002 155.97C3.60355 154.964 2.76786 153.85 2.07 152.65C1.49 151.71 1.20001 151.11 0.990013 150.77C1.02597 150.616 1.04276 150.458 1.04 150.3C1.0253 149.126 1.09884 147.953 1.26 146.79C1.43456 145.883 1.77346 145.015 2.26 144.23C2.82343 143.346 3.49532 142.537 4.26 141.82C5.05 141.07 5.90001 140.38 6.74001 139.72C7.58001 139.06 8.37002 138.45 9.09002 137.94C10.52 136.94 11.69 136.3 12.09 136.04C12.2504 135.941 12.401 135.827 12.54 135.7C12.78 137.86 13.07 139.92 13.37 141.82C13.43 142.15 13.48 142.47 13.54 142.82C13.4395 142.845 13.3422 142.882 13.25 142.93C12.5712 143.346 11.9407 143.835 11.37 144.39C10.3739 145.311 9.4323 146.289 8.55001 147.32C7.60001 148.4 6.67003 149.49 5.94003 150.39C5.60514 150.794 5.31041 151.229 5.06002 151.69C4.89979 151.962 4.78811 152.26 4.73 152.57C4.67 153.09 4.82001 153.2 4.99001 153.23C5.16001 153.26 5.25001 153.23 5.49001 152.85C5.78759 152.368 6.12192 151.91 6.49001 151.48C6.53143 151.569 6.5782 151.656 6.63003 151.74C6.73003 151.9 6.88002 152.1 7.09002 152.37C7.30002 152.64 7.6 152.95 7.98 153.37C8.93136 154.303 9.96938 155.144 11.08 155.88C13.024 157.16 15.1246 158.185 17.33 158.93C20.1649 159.88 23.1146 160.445 26.1 160.61C29.3958 160.783 32.7007 160.609 35.96 160.09C42.0834 158.991 48.1192 157.451 54.02 155.48C59.09 153.91 62.96 152.89 64.33 152.48C65.24 152.22 65.79 152.05 66.11 151.92C66.61 151.92 67.35 151.92 68.45 151.92C69.39 151.92 71.19 151.92 73.63 152.09C74.24 152.09 74.89 152.17 75.58 152.24L77.74 152.44C79.25 152.63 80.9 152.81 82.65 153.08C86.14 153.57 90.06 154.24 94.23 154.79C98.5601 155.416 102.937 155.657 107.31 155.51C111.715 155.334 116.064 154.453 120.19 152.9C124.19 151.4 127.72 149.59 130.91 148.03C132.442 147.307 133.887 146.415 135.22 145.37C136.326 144.482 137.332 143.476 138.22 142.37C139.353 140.992 140.301 139.473 141.04 137.85C141.329 137.2 141.576 136.532 141.78 135.85C141.84 135.95 141.9 136.05 141.95 136.15C142.225 136.707 142.462 137.281 142.66 137.87C142.82 138.34 142.91 138.63 142.99 138.8C143.07 138.97 143.16 139.02 143.25 139.01C143.34 139 143.38 139.01 143.43 138.78C143.498 138.416 143.498 138.044 143.43 137.68C143.32 136.99 143.118 136.317 142.83 135.68C142.324 134.609 141.693 133.602 140.95 132.68C140.1 131.6 139.09 130.48 138.02 129.3C136.95 128.12 135.79 126.89 134.62 125.69C131.194 122.101 127.518 118.76 123.62 115.69L123.11 115.37C122.68 113.04 122.21 110.56 121.62 107.99C121.44 107.21 121.24 106.41 121.02 105.61L121.44 106.02C122.3 106.83 124.82 109.02 128.18 111.89C131.54 114.76 135.85 118.18 139.42 122.27C141.185 124.248 142.682 126.45 143.87 128.82C144.935 130.935 145.638 133.213 145.95 135.56C146.101 136.533 146.171 137.516 146.16 138.5Z" fill="#260D4A"/>
<path d="M124.28 131C124.22 130.17 124.1 128.58 123.85 126.42C123.6 124.26 123.18 121.55 122.61 118.42C122.04 115.29 121.38 111.86 120.54 108.26C119.716 104.54 118.478 100.924 116.85 97.48C115.193 94.0675 113.003 90.9415 110.36 88.22C109.135 86.9652 107.738 85.8911 106.21 85.03C104.791 84.2611 103.274 83.6892 101.7 83.33C100.2 82.97 98.7501 82.75 97.4101 82.56C96.0701 82.37 94.85 82.21 93.76 82.08L89.1601 81.58C88.3901 81.5 87.82 81.42 87.39 81.36C86.7939 81.4472 86.1925 81.494 85.5901 81.5H84.2L82.04 81.55H80.7101L79.23 81.61C78.23 81.61 77.0601 81.68 75.8701 81.77C64.6952 82.4617 53.6652 84.6616 43.08 88.31C41.94 88.68 40.8901 89.09 39.9101 89.44C38.9301 89.79 38.0501 90.14 37.2801 90.44L35.2801 91.23L34.0001 91.75C33.4711 91.9701 32.9303 92.1604 32.3801 92.32C32.0201 92.5 31.49 92.73 30.7701 93.14L30.11 93.47L29.2501 93.98C28.4686 94.4343 27.711 94.9283 26.98 95.46C24.8884 96.993 23.0147 98.8028 21.4101 100.84C19.3337 103.452 17.6494 106.352 16.4101 109.45C15.7224 111.148 15.1674 112.896 14.7501 114.68C14.2996 116.51 13.9656 118.367 13.7501 120.24C12.8401 127.77 13.65 135.43 14.55 141.48C14.8917 144.069 15.4982 146.615 16.36 149.08C16.8632 150.477 17.51 151.817 18.29 153.08L18.7401 153.78L19.1201 154.31C19.3101 154.6 19.47 154.79 19.58 154.95L20.45 155.39C21.2797 155.797 22.1429 156.131 23.0301 156.39C24.6017 156.807 26.2245 156.999 27.85 156.96C29.9689 156.914 32.08 156.686 34.1601 156.28C36.4796 155.849 38.7484 155.178 40.9301 154.28C43.1058 153.402 45.1461 152.221 46.9901 150.77C48.6442 149.48 50.0852 147.938 51.26 146.2C52.31 144.6 53.1201 143.06 53.9101 141.92C54.446 141.081 55.0879 140.315 55.82 139.64C56.0612 139.427 56.3186 139.233 56.5901 139.06C56.5901 138.93 56.64 138.76 57.0201 138.42L57.39 138.14C57.56 138.03 57.7801 137.91 58.0301 137.77C58.3067 137.61 58.594 137.47 58.89 137.35C59.2388 137.188 59.596 137.044 59.9601 136.92C61.7694 136.291 63.6747 135.983 65.5901 136.01C67.5002 136.042 69.3908 136.4 71.1801 137.07C71.5423 137.202 71.8962 137.356 72.2401 137.53C72.5345 137.654 72.8187 137.801 73.0901 137.97L73.7101 138.35C73.8801 138.46 74.0001 138.56 74.0901 138.63C74.5901 139.08 74.6001 139.24 74.5201 139.35C74.5007 139.389 74.4691 139.421 74.4301 139.44C74.7629 139.776 75.0736 140.134 75.36 140.51C75.84 141.09 76.6001 142.31 77.6201 143.9C78.7178 145.885 80.4203 147.469 82.48 148.42C84.88 149.48 87.97 149.69 91.2 149.79C94.5413 149.88 97.8845 149.713 101.2 149.29C104.519 148.893 107.8 148.224 111.01 147.29C113.873 146.485 116.551 145.126 118.89 143.29C120.664 141.831 122.083 139.988 123.04 137.9C123.598 136.703 124.011 135.445 124.27 134.15C124.37 133.63 124.45 133.22 124.51 132.89C124.57 132.56 124.37 131.99 124.28 131ZM117.47 126.36C117.515 127.532 117.461 128.707 117.31 129.87C117.31 130.11 117.24 130.33 117.21 130.52C117.18 130.71 117.35 131.16 117.07 132.39C116.789 133.38 116.357 134.321 115.79 135.18C114.77 136.646 113.501 137.922 112.04 138.95C110.239 140.309 108.286 141.453 106.22 142.36C101.62 144.361 96.6463 145.36 91.6301 145.29C90.4243 145.251 89.2312 145.031 88.0901 144.64C87.0295 144.272 86.0211 143.767 85.0901 143.14C83.6424 142.125 82.3403 140.918 81.2201 139.55C80.5776 138.786 79.9767 137.988 79.42 137.16C79.1346 136.745 78.8838 136.306 78.67 135.85C78.6289 135.83 78.5916 135.803 78.5601 135.77C78.0801 135.44 76.9201 134.28 75.1901 133.11C74.2519 132.469 73.2241 131.97 72.14 131.63C70.9163 131.272 69.6538 131.064 68.3801 131.01C65.894 130.915 63.4045 131.039 60.9401 131.38C58.8201 131.65 57.2201 132 56.6501 132.08H56.51L55.6801 132.48C54.9468 132.83 54.25 133.252 53.6 133.74C52.4787 134.611 51.4708 135.619 50.6 136.74C49.55 138.07 48.52 139.74 47.35 141.41C46.1562 143.245 44.7047 144.898 43.04 146.32C41.3512 147.706 39.4847 148.859 37.4901 149.75C35.6985 150.589 33.7843 151.136 31.82 151.37C30.2794 151.549 28.7192 151.458 27.2101 151.1C26.3415 150.91 25.5035 150.6 24.7201 150.18C24.3128 149.974 23.9414 149.704 23.6201 149.38C23.5653 149.327 23.5241 149.262 23.5001 149.19C23.174 148.928 22.8666 148.644 22.58 148.34C21.718 147.405 20.9848 146.359 20.4001 145.23C19.3808 143.267 18.6564 141.164 18.2501 138.99C17.7366 136.238 17.4026 133.455 17.2501 130.66C17.1501 129.17 17.1 127.66 17.14 126.06C17.1993 124.471 17.363 122.888 17.6301 121.32C18.1627 118.23 19.1289 115.23 20.5001 112.41C21.718 109.869 23.2391 107.485 25.0301 105.31C26.4217 103.619 27.9758 102.068 29.67 100.68C30.6409 99.8944 31.6595 99.1696 32.7201 98.51C33.1801 98.25 33.5401 98.07 33.8101 97.93L34.0301 97.74C35.1025 96.8806 36.2866 96.1707 37.55 95.63C38.43 95.23 39.43 94.83 40.55 94.41C41.67 93.99 42.8601 93.53 44.1501 93.1C46.7301 92.18 49.68 91.34 52.8 90.51C55.92 89.68 59.25 89 62.61 88.43C68.871 87.3781 75.1949 86.7434 81.54 86.53C86.99 86.35 91.11 86.53 92.54 86.59C93.54 86.66 94.0801 86.73 94.4301 86.79H95.5001C96.6793 86.904 97.8428 87.1454 98.9701 87.51C100.945 88.138 102.805 89.0801 104.48 90.3C106.658 91.8625 108.478 93.8702 109.82 96.19C110.552 97.4381 111.22 98.7231 111.82 100.04C112.42 101.37 113 102.72 113.52 104.11C114.04 105.489 114.488 106.894 114.86 108.32C114.95 108.68 115.04 109.04 115.11 109.39C115.18 109.74 115.24 110.1 115.3 110.45C115.43 111.16 115.56 111.85 115.68 112.54C116.17 115.3 116.52 117.9 116.88 120.23C117.196 122.26 117.393 124.307 117.47 126.36Z" fill="#BDBDBD"/>
<path d="M115.74 120.52C115.35 118.22 114.96 115.59 114.46 112.89C114.34 112.21 114.22 111.53 114.09 110.83C113.96 110.13 113.84 109.44 113.65 108.76C113.29 107.39 112.85 106.02 112.35 104.67C111.85 103.32 111.28 101.98 110.69 100.67C110.1 99.36 109.5 98.1 108.82 96.92C107.571 94.7366 105.886 92.8338 103.87 91.33C102.304 90.1484 100.567 89.2111 98.72 88.55C97.657 88.1754 96.5672 87.8812 95.46 87.67L94.34 87.46L93.89 87.38C93.56 87.38 93.14 87.43 92.6 87.45C91.15 87.45 87.05 87.45 81.6 87.73C75.3122 88.0196 69.0476 88.6875 62.84 89.73C59.52 90.29 56.23 91.01 53.12 91.73C50.01 92.45 47.12 93.34 44.54 94.21C43.89 94.43 43.27 94.62 42.67 94.83L40.95 95.45C39.86 95.84 38.86 96.21 38 96.57C36.7919 97.0593 35.636 97.6691 34.55 98.39C33.66 99 33.21 99.44 32.92 99.66C32.63 99.88 32.55 99.91 32.49 99.87C32.4812 99.853 32.4767 99.8341 32.4767 99.815C32.4767 99.7959 32.4812 99.777 32.49 99.76C30.0729 101.578 27.8897 103.687 25.99 106.04C24.2938 108.169 22.8445 110.484 21.67 112.94C20.3684 115.665 19.4432 118.555 18.92 121.53C18.6641 123.035 18.5071 124.555 18.45 126.08C18.4 127.6 18.45 129.08 18.53 130.58C18.6606 133.321 18.9477 136.052 19.39 138.76C19.7486 140.838 20.3913 142.857 21.3 144.76C21.8331 145.839 22.4694 146.864 23.2 147.82C23.72 148.5 24.09 148.91 24.31 149.18L25.06 149.46C25.823 149.752 26.6091 149.979 27.41 150.14C28.8149 150.405 30.2533 150.442 31.67 150.25C35.5595 149.604 39.2054 147.929 42.23 145.4C45.49 142.77 47.41 138.79 49.7 136.07C50.6615 134.866 51.7895 133.806 53.05 132.92C53.7787 132.409 54.5768 132.005 55.42 131.72L55.85 131.6C56.0504 131.467 56.2651 131.356 56.49 131.27C57.8973 130.808 59.3431 130.474 60.81 130.27C63.3426 129.84 65.9129 129.672 68.48 129.77C69.8615 129.824 71.2299 130.059 72.55 130.47C73.7467 130.86 74.874 131.437 75.89 132.18C77.1015 133.046 78.2059 134.053 79.18 135.18C79.69 135.83 79.73 136.04 79.66 136.18L80.12 136.68C80.47 137.08 81.12 137.88 82.02 138.89C83.1226 140.14 84.3793 141.246 85.76 142.18C86.5962 142.739 87.5002 143.189 88.45 143.52C89.4863 143.865 90.5682 144.054 91.66 144.08C96.4688 144.1 101.232 143.144 105.66 141.27C107.651 140.415 109.542 139.346 111.3 138.08C112.677 137.147 113.893 135.995 114.9 134.67C115.445 133.894 115.902 133.058 116.26 132.18L116.46 131.68C116.453 131.64 116.453 131.6 116.46 131.56C116.46 131.27 116.46 130.76 116.46 129.86C116.46 129.25 116.52 128.08 116.46 126.48C116.4 124.88 116.11 122.83 115.74 120.52ZM50.89 120.24C50.8596 120.312 50.8146 120.376 50.7577 120.43C50.7009 120.483 50.6336 120.524 50.56 120.55C50.0482 120.488 49.5546 120.321 49.11 120.06C48.6673 119.868 48.2423 119.637 47.84 119.37C47.72 120.23 47.55 121.16 47.31 122.15C46.8079 124.235 45.9775 126.226 44.85 128.05C44.72 128.27 44.57 128.49 44.43 128.7C45.3894 129.491 46.1613 130.485 46.69 131.61C46.6935 131.682 46.6776 131.753 46.6442 131.816C46.6108 131.879 46.561 131.933 46.5 131.97C46.4393 132.024 46.3678 132.065 46.2902 132.089C46.2125 132.113 46.1307 132.12 46.05 132.11C45.1349 131.412 44.3811 130.526 43.84 129.51C42.7401 130.957 41.3844 132.191 39.84 133.15C39.2117 133.531 38.5403 133.837 37.84 134.06C37.9557 135.18 37.8642 136.313 37.57 137.4C37.522 137.455 37.4614 137.497 37.3935 137.523C37.3256 137.549 37.2523 137.558 37.18 137.55C37.0995 137.553 37.0193 137.539 36.945 137.508C36.8707 137.477 36.8041 137.43 36.75 137.37C36.5437 136.354 36.5437 135.306 36.75 134.29H36.29C34.9912 134.318 33.7264 133.874 32.73 133.04C31.8168 132.293 31.0936 131.34 30.62 130.26C30.4376 129.851 30.2839 129.43 30.16 129C29.3739 129.499 28.4973 129.839 27.58 130C27.5125 129.981 27.4507 129.945 27.4002 129.896C27.3496 129.847 27.3118 129.787 27.29 129.72C27.246 129.657 27.2161 129.585 27.2023 129.509C27.1885 129.433 27.1912 129.355 27.21 129.28C27.9819 128.626 28.891 128.155 29.87 127.9L29.75 127.28C29.3272 124.724 29.2834 122.119 29.62 119.55C29.88 118 30.07 117.88 30.19 117.9C30.31 117.92 30.45 118.13 30.43 119.59C30.327 122.082 30.4778 124.578 30.88 127.04C31.1202 128.962 32.0386 130.735 33.47 132.04C34.2353 132.695 35.2125 133.051 36.22 133.04C37.2886 132.966 38.3209 132.622 39.22 132.04C41.1045 130.864 42.6923 129.27 43.86 127.38C44.93 125.667 45.7357 123.803 46.25 121.85C46.662 120.316 46.9496 118.751 47.11 117.17C47.26 115.88 47.31 114.92 47.36 114.42C47.5 112.9 47.61 112.66 47.75 112.66C47.89 112.66 48.08 112.93 48.17 114.42C48.2269 115.356 48.2269 116.294 48.17 117.23C48.17 117.62 48.1 118.07 48.05 118.53C48.05 118.53 48.05 118.48 48.1 118.47C48.6645 118.433 49.2275 118.562 49.72 118.84C50.2506 119.048 50.7164 119.393 51.07 119.84C51.0776 119.918 51.0639 119.996 51.0305 120.066C50.997 120.137 50.945 120.197 50.88 120.24H50.89ZM106.01 120.79C105.976 120.863 105.926 120.927 105.864 120.977C105.802 121.028 105.728 121.063 105.65 121.08C105.036 120.96 104.456 120.707 103.95 120.34C103.605 120.138 103.271 119.918 102.95 119.68C102.61 119.43 102.68 119.41 102.61 119.34C102.551 119.255 102.507 119.16 102.48 119.06C102.475 119.03 102.475 119 102.48 118.97C102.43 119.08 102.39 119.19 102.33 119.31C101.45 121.273 100.277 123.09 98.85 124.7C98.1947 125.423 97.4825 126.091 96.72 126.7C97.008 127.011 97.2689 127.345 97.5 127.7C97.6 127.86 97.7 128.01 97.79 128.17C97.8509 128.287 97.9176 128.4 97.99 128.51C98.061 128.593 98.1093 128.693 98.13 128.8C98.181 128.917 98.2244 129.037 98.26 129.16C98.26 129.32 98.32 129.49 98.1 129.61C97.9683 129.662 97.8218 129.662 97.69 129.61C97.4995 129.553 97.3226 129.458 97.17 129.33C97.0256 129.19 96.8919 129.04 96.77 128.88L96.46 128.43C96.2249 128.073 96.0176 127.699 95.84 127.31C94.9231 127.926 93.9089 128.382 92.84 128.66C91.5689 128.987 90.228 128.913 89 128.45C87.9956 128.033 87.0945 127.402 86.36 126.6C86.26 126.91 86.07 127.35 85.88 127.79C85.6905 128.331 85.4208 128.84 85.08 129.3C85.0173 129.329 84.9491 129.344 84.88 129.344C84.811 129.344 84.7428 129.329 84.68 129.3C84.6017 129.287 84.5271 129.257 84.4615 129.212C84.3959 129.167 84.3408 129.108 84.3 129.04C84.2693 128.428 84.4077 127.819 84.7 127.28C84.8487 126.929 85.033 126.594 85.25 126.28C85.3584 126.077 85.5125 125.903 85.7 125.77C84.575 124.103 83.8339 122.208 83.53 120.22C83.46 119.82 83.4 119.44 83.34 119.06C83.01 119.29 82.49 119.59 81.98 119.89C81.4077 120.294 80.7902 120.629 80.14 120.89C80.0664 120.896 79.9926 120.883 79.9259 120.851C79.8592 120.819 79.8019 120.771 79.76 120.71C79.7025 120.652 79.6605 120.58 79.6378 120.502C79.615 120.423 79.6124 120.34 79.63 120.26C80.07 119.664 80.6415 119.178 81.3 118.84C81.8863 118.487 82.5191 118.218 83.18 118.04C82.905 116.234 82.7214 114.415 82.63 112.59C82.63 111.03 82.73 110.87 82.86 110.86C82.99 110.85 83.19 111.03 83.44 112.49C83.63 113.49 83.94 116.32 84.66 120C84.9703 121.968 85.7602 123.829 86.96 125.42C87.617 126.23 88.4661 126.862 89.43 127.26C90.412 127.643 91.49 127.706 92.51 127.44C93.5876 127.177 94.6056 126.712 95.51 126.07C96.4109 125.436 97.2422 124.709 97.99 123.9C98.7008 123.121 99.3463 122.285 99.92 121.4C100.455 120.584 100.933 119.732 101.35 118.85C102.401 116.562 103.228 114.177 103.82 111.73C104.23 110.24 104.37 110.03 104.52 110.05C104.67 110.07 104.79 110.38 104.62 111.87C104.277 114.148 103.652 116.376 102.76 118.5C102.874 118.465 102.996 118.465 103.11 118.5C103.283 118.54 103.451 118.6 103.61 118.68C103.954 118.847 104.288 119.034 104.61 119.24C105.175 119.535 105.682 119.928 106.11 120.4C106.125 120.469 106.123 120.541 106.104 120.609C106.085 120.677 106.049 120.739 106 120.79H106.01Z" fill="#BDBDBD"/>
<path d="M146.16 138.5C146.1 139.323 145.969 140.139 145.77 140.94C145.512 141.941 145.115 142.9 144.59 143.79C144.18 144.5 143.87 144.89 143.72 145.14L143.65 145.26C143.28 145.56 142.73 146.03 141.86 146.73C140.496 147.833 139.07 148.858 137.59 149.8C134.997 151.437 132.267 152.846 129.43 154.01C121.727 157.211 113.507 158.987 105.17 159.25C96.26 159.55 87.4 157.92 80.34 156.59C77.2989 155.907 74.2153 155.429 71.11 155.16C69.287 155.034 67.4557 155.21 65.69 155.68C64.8835 155.904 64.1126 156.241 63.4 156.68C63.35 156.63 63.26 156.63 62.97 156.77C62.68 156.91 62.11 157.27 61.06 157.77C59.798 158.373 58.4778 158.845 57.12 159.18C54.716 159.729 52.2768 160.109 49.82 160.32C46.92 160.6 43.66 161.08 40.27 161.64C36.88 162.2 33.33 162.81 29.76 163.14C26.2684 163.514 22.7455 163.487 19.26 163.06C16.1472 162.683 13.1247 161.762 10.33 160.34C8.17279 159.221 6.22164 157.743 4.56 155.97C3.60353 154.964 2.76784 153.85 2.06998 152.65C1.48998 151.71 1.19999 151.11 0.98999 150.77C1.02595 150.616 1.04273 150.458 1.03998 150.3C1.02527 149.126 1.09882 147.953 1.25998 146.79C1.43453 145.883 1.77344 145.015 2.25998 144.23C2.8234 143.346 3.4953 142.537 4.25998 141.82C5.04998 141.07 5.89999 140.38 6.73999 139.72C7.57999 139.06 8.37 138.45 9.09 137.94C10.52 136.94 11.69 136.3 12.09 136.04C12.2503 135.941 12.401 135.827 12.54 135.7C12.78 137.86 13.07 139.92 13.37 141.82C13.43 142.15 13.48 142.47 13.54 142.82C13.4394 142.845 13.3422 142.882 13.25 142.93C12.5712 143.345 11.9406 143.835 11.37 144.39C10.3739 145.311 9.43227 146.289 8.54999 147.32C7.59999 148.4 6.67 149.49 5.94 150.39C5.60512 150.794 5.31039 151.229 5.06 151.69C4.89977 151.962 4.78809 152.26 4.72998 152.57C4.66998 153.09 4.81999 153.2 4.98999 153.23C5.15999 153.26 5.24999 153.23 5.48999 152.85C5.78757 152.368 6.12189 151.91 6.48999 151.48C6.53141 151.569 6.57817 151.656 6.63 151.74C6.73 151.9 6.88 152.1 7.09 152.37C7.3 152.64 7.59998 152.95 7.97998 153.37C8.93133 154.303 9.96936 155.144 11.08 155.88C13.024 157.16 15.1246 158.185 17.33 158.93C20.1649 159.88 23.1146 160.445 26.1 160.61C29.3958 160.783 32.7007 160.609 35.96 160.09C42.0834 158.991 48.1191 157.45 54.02 155.48C59.09 153.91 62.96 152.89 64.33 152.48C65.24 152.22 65.79 152.05 66.11 151.92C66.61 151.92 67.35 151.92 68.45 151.92C69.39 151.92 71.19 151.92 73.63 152.09C74.24 152.09 74.89 152.17 75.58 152.24L77.74 152.44C79.25 152.63 80.9 152.81 82.65 153.08C86.14 153.57 90.06 154.24 94.23 154.79C98.5601 155.416 102.937 155.657 107.31 155.51C111.715 155.334 116.064 154.453 120.19 152.9C124.19 151.4 127.72 149.59 130.91 148.03C132.442 147.307 133.887 146.415 135.22 145.37C136.326 144.482 137.332 143.476 138.22 142.37C139.353 140.992 140.301 139.473 141.04 137.85C141.329 137.2 141.576 136.532 141.78 135.85C141.84 135.95 141.9 136.05 141.95 136.15C142.225 136.707 142.462 137.281 142.66 137.87C142.82 138.34 142.91 138.63 142.99 138.8C143.07 138.97 143.16 139.02 143.25 139.01C143.34 139 143.38 139.01 143.43 138.78C143.498 138.416 143.498 138.044 143.43 137.68C143.32 136.99 143.118 136.317 142.83 135.68C142.324 134.609 141.693 133.602 140.95 132.68C140.1 131.6 139.09 130.48 138.02 129.3C136.95 128.12 135.79 126.89 134.62 125.69C131.194 122.101 127.518 118.76 123.62 115.69L123.11 115.37C122.68 113.04 122.21 110.56 121.62 107.99C121.44 107.21 121.24 106.41 121.02 105.61L121.44 106.02C122.3 106.83 124.82 109.02 128.18 111.89C131.54 114.76 135.85 118.18 139.42 122.27C141.185 124.248 142.682 126.45 143.87 128.82C144.935 130.935 145.638 133.213 145.95 135.56C146.101 136.533 146.171 137.516 146.16 138.5Z" fill="#BDBDBD"/>
<g style="mix-blend-mode:multiply" opacity="0.2">
<path d="M102.74 89.91C104.74 91.91 105.88 95.17 106.98 97.76C107.98 100.01 108.61 102.41 109.42 104.71C110.665 108.638 111.319 112.73 111.36 116.85C111.54 121.19 111.6 126.06 109.14 129.85C105.93 134.77 99.94 136.85 94.43 137.85C89.09 138.85 85.43 137.3 81.89 133.39C78.56 129.7 74.84 126.75 69.64 126.51C62.96 126.2 55.49 129.06 50.04 132.62C45.72 135.44 44.04 140.23 39.5 142.99C35.32 145.53 27.5 146.91 23.5 143.18C21.9323 141.673 20.7639 139.801 20.1 137.73C19.8 136.66 19.87 133.57 19.19 133.04C16.49 135.44 19.05 141.04 20.37 143.54C21.93 146.54 23.74 149.9 27.31 150.68C33.31 152 40.22 147.55 44.41 143.57C49.41 138.8 52.31 132.36 59.66 130.92C63.59 130.15 69.18 129.61 72.99 130.82C77.49 132.24 79.9 136.89 82.63 140.44C85.56 144.23 91.13 145.33 95.77 144.52C101.49 143.52 107.92 141.58 112.42 137.81C116.68 134.24 117.7 129.87 116.79 124.6C115.79 118.88 115.36 113.47 113.49 108.01C112.6 105.43 112.49 102.69 111.28 100.21C109.99 97.5001 107.83 95.49 106.06 93.14C105.13 91.91 103.97 90.28 102.74 89.91Z" fill="#006C94"/>
</g>
<g opacity="0.3">
<path d="M36.6001 101.23C35.5007 101.671 34.4515 102.227 33.4701 102.89C31.7645 104.02 30.1913 105.339 28.7801 106.82C27.3721 108.307 26.1406 109.951 25.1101 111.72C24.4951 112.735 24.0017 113.82 23.6401 114.95C23.4901 115.63 23.6401 115.76 23.7601 115.83C23.8801 115.9 24.0501 115.88 24.4401 115.29C24.6801 114.9 25.2701 113.77 26.1701 112.35C27.2298 110.706 28.4346 109.16 29.7701 107.73C31.1202 106.322 32.5964 105.04 34.1801 103.9C35.5501 102.9 36.6401 102.27 37.0101 102C37.5401 101.58 37.5901 101.39 37.5101 101.22C37.4301 101.05 37.2901 101.01 36.6001 101.23Z" fill="white"/>
<path d="M50.82 95.51C49.581 95.5764 48.366 95.8785 47.2401 96.4C46.0753 96.8311 45.0104 97.4945 44.11 98.35C44.0458 98.4272 44.0106 98.5246 44.0106 98.625C44.0106 98.7255 44.0458 98.8228 44.11 98.9C44.1543 98.9781 44.2248 99.038 44.309 99.0692C44.3932 99.1003 44.4856 99.1006 44.57 99.07C44.94 99 46.31 98.23 47.76 97.64C49.21 97.05 50.7101 96.59 51.0001 96.35C51.0827 96.2946 51.1456 96.2144 51.1797 96.121C51.2139 96.0275 51.2175 95.9256 51.1901 95.83C51.1801 95.69 51.11 95.56 50.82 95.51Z" fill="white"/>
<path d="M49.7401 87.56C48.2755 87.829 46.8294 88.1897 45.4101 88.64C42.9554 89.3926 40.5421 90.2738 38.1801 91.28C35.8207 92.2924 33.5174 93.4306 31.2801 94.69C29.9773 95.4044 28.7244 96.2063 27.5301 97.09C26.8601 97.66 26.85 97.84 26.95 98C27.05 98.16 27.1801 98.19 28.0001 97.82C28.5301 97.57 30 96.77 31.89 95.76C33.78 94.75 36.25 93.57 38.73 92.51C41.21 91.45 43.7301 90.51 45.8101 89.81C47.8901 89.11 49.44 88.62 49.98 88.39C50.77 88.05 50.8901 87.87 50.8401 87.69C50.7901 87.51 50.6001 87.44 49.7401 87.56Z" fill="white"/>
<path d="M57.2801 85.55C56.5753 85.4344 55.8534 85.4823 55.1701 85.69C54.4457 85.7869 53.7577 86.0656 53.1701 86.5C53.1306 86.5757 53.11 86.6597 53.11 86.745C53.11 86.8303 53.1306 86.9144 53.1701 86.99C53.1871 87.0648 53.2225 87.1342 53.2731 87.1919C53.3238 87.2495 53.3881 87.2936 53.4601 87.32C54.1373 87.2957 54.809 87.1882 55.4601 87C56.1289 86.9076 56.7777 86.7049 57.3801 86.4C57.4302 86.3319 57.465 86.2537 57.4823 86.1709C57.4996 86.0881 57.4988 86.0025 57.4801 85.92C57.4822 85.8462 57.4649 85.7731 57.4297 85.7082C57.3946 85.6432 57.343 85.5887 57.2801 85.55Z" fill="white"/>
</g>
</svg>