<svg width="24" height="25" viewBox="0 0 24 25" fill="currentColor" xmlns="http://www.w3.org/2000/svg">
<path d="M12.1596 12.2357C12.1296 12.2357 12.1096 12.2357 12.0796 12.2357C12.0296 12.2257 11.9596 12.2257 11.8996 12.2357C8.99957 12.1457 6.80957 9.86572 6.80957 7.05572C6.80957 4.19572 9.13957 1.86572 11.9996 1.86572C14.8596 1.86572 17.1896 4.19572 17.1896 7.05572C17.1796 9.86572 14.9796 12.1457 12.1896 12.2357C12.1796 12.2357 12.1696 12.2357 12.1596 12.2357ZM11.9996 3.36572C9.96957 3.36572 8.30957 5.02572 8.30957 7.05572C8.30957 9.05572 9.86957 10.6657 11.8596 10.7357C11.9096 10.7257 12.0496 10.7257 12.1796 10.7357C14.1396 10.6457 15.6796 9.03572 15.6896 7.05572C15.6896 5.02572 14.0296 3.36572 11.9996 3.36572Z" fill="currentColor"/>
<path d="M12.1696 23.1657C10.2096 23.1657 8.23961 22.6657 6.74961 21.6657C5.35961 20.7457 4.59961 19.4857 4.59961 18.1157C4.59961 16.7457 5.35961 15.4757 6.74961 14.5457C9.74961 12.5557 14.6096 12.5557 17.5896 14.5457C18.9696 15.4657 19.7396 16.7257 19.7396 18.0957C19.7396 19.4657 18.9796 20.7357 17.5896 21.6657C16.0896 22.6657 14.1296 23.1657 12.1696 23.1657ZM7.57961 15.8057C6.61961 16.4457 6.09961 17.2657 6.09961 18.1257C6.09961 18.9757 6.62961 19.7957 7.57961 20.4257C10.0696 22.0957 14.2696 22.0957 16.7596 20.4257C17.7196 19.7857 18.2396 18.9657 18.2396 18.1057C18.2396 17.2557 17.7096 16.4357 16.7596 15.8057C14.2696 14.1457 10.0696 14.1457 7.57961 15.8057Z" fill="currentColor"/>
</svg>
