<svg width="24" height="25" viewBox="0 0 24 25" fill="currentColor" xmlns="http://www.w3.org/2000/svg">
<path d="M12 23.3658C11.4 23.3658 10.81 23.2258 10.33 22.9558L5.60001 20.2258C3.64001 18.9058 3.51001 18.6658 3.51001 16.5958V11.6358C3.51001 9.56578 3.64001 9.32578 5.56001 8.03578L10.34 5.27578C11.29 4.72578 12.72 4.72578 13.67 5.27578L18.4 8.00578C20.36 9.32578 20.49 9.56578 20.49 11.6358V16.5958C20.49 18.6658 20.36 18.9058 18.44 20.1958L13.66 22.9558C13.19 23.2358 12.59 23.3658 12 23.3658ZM12 6.36578C11.66 6.36578 11.32 6.43578 11.08 6.57578L6.35001 9.30578C5.01001 10.2158 5.01001 10.2158 5.01001 11.6358V16.5958C5.01001 18.0158 5.01001 18.0158 6.40001 18.9558L11.09 21.6558C11.57 21.9358 12.44 21.9358 12.92 21.6558L17.65 18.9258C18.99 18.0158 18.99 18.0158 18.99 16.5958V11.6358C18.99 10.2158 18.99 10.2158 17.6 9.27578L12.91 6.57578C12.68 6.43578 12.34 6.36578 12 6.36578Z" fill="currentColor"/>
<path d="M17.5 8.99572C17.09 8.99572 16.75 8.65572 16.75 8.24572V5.61572C16.75 4.03572 16.08 3.36572 14.5 3.36572H9.5C7.92 3.36572 7.25 4.03572 7.25 5.61572V8.17572C7.25 8.58572 6.91 8.92572 6.5 8.92572C6.09 8.92572 5.75 8.59572 5.75 8.17572V5.61572C5.75 3.19572 7.08 1.86572 9.5 1.86572H14.5C16.92 1.86572 18.25 3.19572 18.25 5.61572V8.24572C18.25 8.65572 17.91 8.99572 17.5 8.99572Z" fill="currentColor"/>
<path d="M13.63 18.2458C13.42 18.2458 13.2 18.2058 12.98 18.1158L12 17.7358L11.02 18.1258C10.49 18.3358 9.94999 18.2858 9.54999 17.9958C9.14999 17.7058 8.93999 17.2058 8.96999 16.6358L9.02999 15.5858L8.35999 14.7758C7.99999 14.3258 7.87999 13.8058 8.03999 13.3258C8.18999 12.8558 8.59999 12.4958 9.14999 12.3558L10.17 12.0958L10.74 11.2058C11.35 10.2458 12.66 10.2458 13.27 11.2058L13.84 12.0958L14.86 12.3558C15.41 12.4958 15.82 12.8558 15.97 13.3258C16.12 13.7958 16 14.3258 15.64 14.7658L14.97 15.5758L15.03 16.6258C15.06 17.1958 14.85 17.6858 14.45 17.9858C14.21 18.1558 13.93 18.2458 13.63 18.2458ZM9.51999 13.8158L10.19 14.6258C10.42 14.8958 10.55 15.3258 10.53 15.6758L10.47 16.7258L11.45 16.3358C11.78 16.2058 12.22 16.2058 12.55 16.3358L13.53 16.7258L13.47 15.6758C13.45 15.3258 13.58 14.9058 13.81 14.6258L14.48 13.8158L13.46 13.5558C13.12 13.4658 12.76 13.2058 12.57 12.9158L12.01 12.0358L11.44 12.9158C11.25 13.2158 10.89 13.4758 10.55 13.5658L9.51999 13.8158Z" fill="currentColor"/>
</svg>