<svg width="24" height="25" viewBox="0 0 24 25" fill="currentColor" xmlns="http://www.w3.org/2000/svg">
<path d="M12 16.3657C9.93 16.3657 8.25 14.6857 8.25 12.6157C8.25 10.5457 9.93 8.86572 12 8.86572C14.07 8.86572 15.75 10.5457 15.75 12.6157C15.75 14.6857 14.07 16.3657 12 16.3657ZM12 10.3657C10.76 10.3657 9.75 11.3757 9.75 12.6157C9.75 13.8557 10.76 14.8657 12 14.8657C13.24 14.8657 14.25 13.8557 14.25 12.6157C14.25 11.3757 13.24 10.3657 12 10.3657Z" fill="currentColor"/>
<path d="M15.21 22.8055C15 22.8055 14.79 22.7755 14.58 22.7255C13.96 22.5555 13.44 22.1655 13.11 21.6155L12.99 21.4155C12.4 20.3955 11.59 20.3955 11 21.4155L10.89 21.6055C10.56 22.1655 10.04 22.5655 9.42 22.7255C8.79 22.8955 8.14 22.8055 7.59 22.4755L5.87 21.4855C5.26 21.1355 4.82 20.5655 4.63 19.8755C4.45 19.1855 4.54 18.4755 4.89 17.8655C5.18 17.3555 5.26 16.8955 5.09 16.6055C4.92 16.3155 4.49 16.1455 3.9 16.1455C2.44 16.1455 1.25 14.9555 1.25 13.4955V11.7355C1.25 10.2755 2.44 9.08552 3.9 9.08552C4.49 9.08552 4.92 8.91552 5.09 8.62552C5.26 8.33552 5.19 7.87552 4.89 7.36552C4.54 6.75552 4.45 6.03552 4.63 5.35552C4.81 4.66552 5.25 4.09552 5.87 3.74552L7.6 2.75552C8.73 2.08552 10.22 2.47552 10.9 3.62552L11.02 3.82552C11.61 4.84552 12.42 4.84552 13.01 3.82552L13.12 3.63552C13.8 2.47552 15.29 2.08552 16.43 2.76552L18.15 3.75552C18.76 4.10552 19.2 4.67552 19.39 5.36552C19.57 6.05552 19.48 6.76552 19.13 7.37552C18.84 7.88552 18.76 8.34552 18.93 8.63552C19.1 8.92552 19.53 9.09552 20.12 9.09552C21.58 9.09552 22.77 10.2855 22.77 11.7455V13.5055C22.77 14.9655 21.58 16.1555 20.12 16.1555C19.53 16.1555 19.1 16.3255 18.93 16.6155C18.76 16.9055 18.83 17.3655 19.13 17.8755C19.48 18.4855 19.58 19.2055 19.39 19.8855C19.21 20.5755 18.77 21.1455 18.15 21.4955L16.42 22.4855C16.04 22.6955 15.63 22.8055 15.21 22.8055ZM12 19.1055C12.89 19.1055 13.72 19.6655 14.29 20.6555L14.4 20.8455C14.52 21.0555 14.72 21.2055 14.96 21.2655C15.2 21.3255 15.44 21.2955 15.64 21.1755L17.37 20.1755C17.63 20.0255 17.83 19.7755 17.91 19.4755C17.99 19.1755 17.95 18.8655 17.8 18.6055C17.23 17.6255 17.16 16.6155 17.6 15.8455C18.04 15.0755 18.95 14.6355 20.09 14.6355C20.73 14.6355 21.24 14.1255 21.24 13.4855V11.7255C21.24 11.0955 20.73 10.5755 20.09 10.5755C18.95 10.5755 18.04 10.1355 17.6 9.36552C17.16 8.59552 17.23 7.58552 17.8 6.60552C17.95 6.34552 17.99 6.03552 17.91 5.73552C17.83 5.43552 17.64 5.19552 17.38 5.03552L15.65 4.04552C15.22 3.78552 14.65 3.93552 14.39 4.37552L14.28 4.56552C13.71 5.55552 12.88 6.11552 11.99 6.11552C11.1 6.11552 10.27 5.55552 9.7 4.56552L9.59 4.36552C9.34 3.94552 8.78 3.79552 8.35 4.04552L6.62 5.04552C6.36 5.19552 6.16 5.44552 6.08 5.74552C6 6.04552 6.04 6.35552 6.19 6.61552C6.76 7.59552 6.83 8.60552 6.39 9.37552C5.95 10.1455 5.04 10.5855 3.9 10.5855C3.26 10.5855 2.75 11.0955 2.75 11.7355V13.4955C2.75 14.1255 3.26 14.6455 3.9 14.6455C5.04 14.6455 5.95 15.0855 6.39 15.8555C6.83 16.6255 6.76 17.6355 6.19 18.6155C6.04 18.8755 6 19.1855 6.08 19.4855C6.16 19.7855 6.35 20.0255 6.61 20.1855L8.34 21.1755C8.55 21.3055 8.8 21.3355 9.03 21.2755C9.27 21.2155 9.47 21.0555 9.6 20.8455L9.71 20.6555C10.28 19.6755 11.11 19.1055 12 19.1055Z" fill="currentColor"/>
</svg>
