<svg width="16" height="16" viewBox="0 0 16 16" fill="currentColor" xmlns="http://www.w3.org/2000/svg">
<path d="M7.99998 15.2067C7.53998 15.2067 7.10665 14.9734 6.79998 14.5667L5.79998 13.2334C5.77998 13.2067 5.69998 13.1734 5.66665 13.1667H5.33331C2.55331 13.1667 0.833313 12.4134 0.833313 8.66671V5.33337C0.833313 2.38671 2.38665 0.833374 5.33331 0.833374H10.6666C13.6133 0.833374 15.1666 2.38671 15.1666 5.33337V8.66671C15.1666 11.6134 13.6133 13.1667 10.6666 13.1667H10.3333C10.28 13.1667 10.2333 13.1934 10.2 13.2334L9.19998 14.5667C8.89331 14.9734 8.45998 15.2067 7.99998 15.2067ZM5.33331 1.83337C2.94665 1.83337 1.83331 2.94671 1.83331 5.33337V8.66671C1.83331 11.68 2.86665 12.1667 5.33331 12.1667H5.66665C6.00665 12.1667 6.39331 12.36 6.59998 12.6334L7.59998 13.9667C7.83331 14.2734 8.16665 14.2734 8.39998 13.9667L9.39998 12.6334C9.61998 12.34 9.96665 12.1667 10.3333 12.1667H10.6666C13.0533 12.1667 14.1666 11.0534 14.1666 8.66671V5.33337C14.1666 2.94671 13.0533 1.83337 10.6666 1.83337H5.33331Z" fill="#E65100"/>
<path d="M7.99998 7.99996C7.62665 7.99996 7.33331 7.69996 7.33331 7.33329C7.33331 6.96663 7.63331 6.66663 7.99998 6.66663C8.36665 6.66663 8.66665 6.96663 8.66665 7.33329C8.66665 7.69996 8.37331 7.99996 7.99998 7.99996Z" fill="#E65100"/>
<path d="M10.6667 7.99996C10.2933 7.99996 10 7.69996 10 7.33329C10 6.96663 10.3 6.66663 10.6667 6.66663C11.0333 6.66663 11.3333 6.96663 11.3333 7.33329C11.3333 7.69996 11.04 7.99996 10.6667 7.99996Z" fill="#E65100"/>
<path d="M5.33335 7.99996C4.96002 7.99996 4.66669 7.69996 4.66669 7.33329C4.66669 6.96663 4.96669 6.66663 5.33335 6.66663C5.70002 6.66663 6.00002 6.96663 6.00002 7.33329C6.00002 7.69996 5.70669 7.99996 5.33335 7.99996Z" fill="#E65100"/>
</svg>
