<svg width="25" height="24" viewBox="0 0 25 24" fill="currentColor" xmlns="http://www.w3.org/2000/svg">
<path d="M21.245 8.45C20.195 3.83 16.165 1.75 12.625 1.75C12.625 1.75 12.625 1.75 12.615 1.75C9.08497 1.75 5.04497 3.82 3.99497 8.44C2.82497 13.6 5.98497 17.97 8.84497 20.72C9.90497 21.74 11.265 22.25 12.625 22.25C13.985 22.25 15.345 21.74 16.395 20.72C19.255 17.97 22.415 13.61 21.245 8.45ZM12.625 13.46C10.885 13.46 9.47497 12.05 9.47497 10.31C9.47497 8.57 10.885 7.16 12.625 7.16C14.365 7.16 15.775 8.57 15.775 10.31C15.775 12.05 14.365 13.46 12.625 13.46Z" fill="currentColor" fill-opacity="0.12"/>
</svg>
