<svg width="25" height="24" viewBox="0 0 25 24" fill="currentColor" xmlns="http://www.w3.org/2000/svg">
<path d="M18.405 7.77C18.335 7.76 18.265 7.76 18.195 7.77C16.645 7.72 15.415 6.45 15.415 4.89C15.415 3.3 16.705 2 18.305 2C19.895 2 21.195 3.29 21.195 4.89C21.185 6.45 19.955 7.72 18.405 7.77Z" fill="currentColor" fill-opacity="0.12"/>
<path d="M21.665 14.7C20.545 15.45 18.975 15.73 17.525 15.54C17.905 14.72 18.105 13.81 18.115 12.85C18.115 11.85 17.895 10.9 17.475 10.07C18.955 9.86998 20.525 10.15 21.655 10.9C23.235 11.94 23.235 13.65 21.665 14.7Z" fill="currentColor" fill-opacity="0.12"/>
<path d="M7.31497 7.77C7.38497 7.76 7.45497 7.76 7.52497 7.77C9.07497 7.72 10.305 6.45 10.305 4.89C10.305 3.29 9.01497 2 7.41497 2C5.82497 2 4.53497 3.29 4.53497 4.89C4.53497 6.45 5.76497 7.72 7.31497 7.77Z" fill="currentColor" fill-opacity="0.12"/>
<path d="M7.425 12.85C7.425 13.82 7.635 14.74 8.015 15.57C6.605 15.72 5.135 15.42 4.055 14.71C2.475 13.66 2.475 11.95 4.055 10.9C5.125 10.18 6.635 9.88998 8.055 10.05C7.645 10.89 7.425 11.84 7.425 12.85Z" fill="currentColor" fill-opacity="0.12"/>
<path d="M12.995 15.87C12.915 15.86 12.825 15.86 12.735 15.87C10.895 15.81 9.42499 14.3 9.42499 12.44C9.43499 10.54 10.965 9 12.875 9C14.775 9 16.315 10.54 16.315 12.44C16.305 14.3 14.845 15.81 12.995 15.87Z" fill="currentColor" fill-opacity="0.12"/>
<path d="M9.74499 17.94C8.23499 18.95 8.23499 20.61 9.74499 21.61C11.465 22.76 14.285 22.76 16.005 21.61C17.515 20.6 17.515 18.94 16.005 17.94C14.295 16.79 11.475 16.79 9.74499 17.94Z" fill="currentColor" fill-opacity="0.12"/>
</svg>
