<svg width="25" height="24" viewBox="0 0 25 24" fill="currentColor" xmlns="http://www.w3.org/2000/svg">
<g clip-path="url(#clip0_8458_3672)">
<path d="M22.875 12.6666C22.7873 12.6671 22.7003 12.6502 22.619 12.6171C22.5378 12.5839 22.4639 12.535 22.4017 12.4732L12.875 2.93988L3.34832 12.4732C3.22079 12.5824 3.05674 12.6395 2.88895 12.633C2.72117 12.6265 2.56201 12.557 2.44328 12.4383C2.32455 12.3195 2.25499 12.1604 2.24851 11.9926C2.24203 11.8248 2.2991 11.6608 2.40832 11.5332L12.4083 1.53322C12.5332 1.40905 12.7022 1.33936 12.8783 1.33936C13.0544 1.33936 13.2234 1.40905 13.3483 1.53322L23.3483 11.5332C23.4401 11.6268 23.5022 11.7454 23.5269 11.8741C23.5517 12.0028 23.5379 12.1359 23.4874 12.2568C23.4369 12.3777 23.3519 12.4811 23.2429 12.554C23.134 12.6269 23.006 12.666 22.875 12.6666Z" fill="currentColor" fill-opacity="0.12"/>
<path d="M12.875 5.19336L4.875 13.22V21.3334C4.875 21.687 5.01548 22.0261 5.26552 22.2762C5.51557 22.5262 5.85471 22.6667 6.20833 22.6667H10.875V16H14.875V22.6667H19.5417C19.8953 22.6667 20.2344 22.5262 20.4845 22.2762C20.7345 22.0261 20.875 21.687 20.875 21.3334V13.1734L12.875 5.19336Z" fill="currentColor" fill-opacity="0.12"/>
</g>
<defs>
<clipPath id="clip0_8458_3672">
<rect width="24" height="24" fill="currentColor" transform="translate(0.875)"/>
</clipPath>
</defs>
</svg>
