<svg width="16" height="16" viewBox="0 0 16 16" fill="currentColor" xmlns="http://www.w3.org/2000/svg">
<path d="M14.9143 8.37702C14.7791 8.59361 14.5998 8.77937 14.3882 8.92229L8.87163 12.6462C8.49485 12.9006 8.05061 13.0366 7.59598 13.0366C7.14136 13.0366 6.69711 12.9006 6.32033 12.6462L0.803765 8.92229C0.473598 8.69955 0.225425 8.37486 0.0971603 7.9978C-0.0311042 7.62074 -0.0324076 7.21207 0.0934493 6.8342L6.33128 10.9921C6.68147 11.2255 7.08943 11.3574 7.50997 11.3732C7.9305 11.3889 8.34719 11.288 8.71389 11.0815L8.85978 10.9921L15.0976 6.8342C15.1826 7.08899 15.2102 7.3594 15.1785 7.6261C15.1468 7.89281 15.0566 8.14922 14.9143 8.37702ZM15.0976 9.79765C15.2242 10.1754 15.2233 10.5842 15.0952 10.9614C14.967 11.3386 14.7187 11.6633 14.3882 11.8857L8.87163 15.6097C8.49485 15.8641 8.05061 16 7.59598 16C7.14136 16 6.69711 15.8641 6.32033 15.6097L0.803765 11.8857C0.473598 11.663 0.225425 11.3383 0.0971603 10.9612C-0.0311042 10.5842 -0.0324076 10.1755 0.0934493 9.79765L6.33128 13.9556C6.68147 14.189 7.08943 14.3208 7.50997 14.3366C7.9305 14.3524 8.34719 14.2514 8.71389 14.045L8.85978 13.9556L15.0976 9.79765ZM8.86069 0.383006L14.6645 4.2519C14.7894 4.33517 14.8918 4.44798 14.9626 4.58032C15.0334 4.71267 15.0705 4.86044 15.0705 5.01054C15.0705 5.16064 15.0334 5.30842 14.9626 5.44076C14.8918 5.5731 14.7894 5.68591 14.6645 5.76918L8.86069 9.63899C8.48618 9.88873 8.04612 10.022 7.59598 10.022C7.14585 10.022 6.70578 9.88873 6.33128 9.63899L0.52748 5.76918C0.402598 5.68591 0.300204 5.5731 0.229384 5.44076C0.158565 5.30842 0.121511 5.16064 0.121511 5.01054C0.121511 4.86044 0.158565 4.71267 0.229384 4.58032C0.300204 4.44798 0.402598 4.33517 0.52748 4.2519L6.33128 0.383006C6.70578 0.133269 7.14585 0 7.59598 0C8.04612 0 8.48618 0.133269 8.86069 0.383006ZM7.19478 1.45988L7.08901 1.52097L1.85602 5.01054L7.08992 8.50103C7.22256 8.58939 7.37604 8.64145 7.53507 8.65201C7.6941 8.66257 7.85312 8.63126 7.99628 8.56121L8.10205 8.50103L13.335 5.01054L8.10114 1.52097C7.96868 1.43262 7.81541 1.3805 7.65655 1.36978C7.4977 1.35906 7.3379 1.39012 7.19478 1.45988Z" fill="#E65100"/>
</svg>
