<svg width="75" height="76" viewBox="0 0 75 76" fill="none" xmlns="http://www.w3.org/2000/svg">
<path d="M37.5 75.5C16.7893 75.5 0 58.7105 0 38C0 17.2893 16.7893 0.5 37.5 0.5C58.2105 0.5 75 17.2893 75 38C75 58.7105 58.2105 75.5 37.5 75.5ZM56.25 43.625C56.25 40.5185 53.7315 38 50.625 38H24.375C21.2684 38 18.75 40.5185 18.75 43.625V45.5C18.75 52.8927 25.7232 60.5 37.5 60.5C49.2769 60.5 56.25 52.8927 56.25 45.5V43.625ZM47.8125 23.9375C47.8125 18.2421 43.1955 13.625 37.5 13.625C31.8045 13.625 27.1875 18.2421 27.1875 23.9375C27.1875 29.6329 31.8045 34.25 37.5 34.25C43.1955 34.25 47.8125 29.6329 47.8125 23.9375Z" fill="#E6D7BD"/>
</svg>
