<svg width="16" height="16" viewBox="0 0 16 16" fill="none" xmlns="http://www.w3.org/2000/svg">
<path d="M6.00462 11.3333C6.00462 11.687 5.86414 12.0261 5.61409 12.2761C5.36405 12.5262 5.02491 12.6667 4.67128 12.6667C4.31766 12.6667 3.97852 12.5262 3.72848 12.2761C3.47843 12.0261 3.33795 11.687 3.33795 11.3333C3.33795 10.9797 3.47843 10.6406 3.72848 10.3905C3.97852 10.1405 4.31766 10 4.67128 10C5.02491 10 5.36405 10.1405 5.61409 10.3905C5.86414 10.6406 6.00462 10.9797 6.00462 11.3333ZM12.6713 11.3333C12.6713 11.687 12.5308 12.0261 12.2808 12.2761C12.0307 12.5262 11.6916 12.6667 11.338 12.6667C10.9843 12.6667 10.6452 12.5262 10.3951 12.2761C10.1451 12.0261 10.0046 11.687 10.0046 11.3333C10.0046 10.9797 10.1451 10.6406 10.3951 10.3905C10.6452 10.1405 10.9843 10 11.338 10C11.6916 10 12.0307 10.1405 12.2808 10.3905C12.5308 10.6406 12.6713 10.9797 12.6713 11.3333Z" stroke="#E65100" stroke-linecap="round" stroke-linejoin="round"/>
<path d="M1.33797 6.66665H12.0046M1.33797 6.66665C1.33797 7.18665 1.32464 8.69331 1.34064 10.1733C1.36464 10.6533 1.44464 11.0533 3.33931 11.3333M1.33797 6.66665C1.48197 5.50665 2.10797 4.13331 2.42797 3.61331M6.00464 6.66665V3.33331M9.99797 11.3333H6.0013M1.34797 3.33331H8.15997C8.15997 3.33331 8.51997 3.33331 8.83997 3.36531C9.43931 3.42131 9.94264 3.69331 10.4466 4.37331C10.98 5.09331 11.3893 6.00531 11.9333 6.49331C12.8366 7.30398 14.5553 7.05331 14.6513 8.77331C14.6753 9.65331 14.6753 10.6133 14.6353 10.7733C14.5706 11.2446 14.2073 11.3213 13.7553 11.3333C13.3633 11.344 12.8906 11.3146 12.6606 11.3333" stroke="#E65100" stroke-linecap="round" stroke-linejoin="round"/>
</svg>
