<svg width="16" height="16" viewBox="0 0 16 16" fill="currentColor" xmlns="http://www.w3.org/2000/svg">
<path d="M8.00004 15.1666C4.04671 15.1666 0.833374 11.9533 0.833374 7.99998C0.833374 4.04665 4.04671 0.833313 8.00004 0.833313C11.9534 0.833313 15.1667 4.04665 15.1667 7.99998C15.1667 11.9533 11.9534 15.1666 8.00004 15.1666ZM8.00004 1.83331C4.60004 1.83331 1.83337 4.59998 1.83337 7.99998C1.83337 11.4 4.60004 14.1666 8.00004 14.1666C11.4 14.1666 14.1667 11.4 14.1667 7.99998C14.1667 4.59998 11.4 1.83331 8.00004 1.83331Z" fill="#E65100"/>
<path d="M10.4733 10.62C10.3867 10.62 10.3 10.6 10.22 10.5467L8.15334 9.31332C7.64001 9.00665 7.26001 8.33332 7.26001 7.73999V5.00665C7.26001 4.73332 7.48668 4.50665 7.76001 4.50665C8.03334 4.50665 8.26001 4.73332 8.26001 5.00665V7.73999C8.26001 7.97999 8.46001 8.33332 8.66668 8.45332L10.7333 9.68665C10.9733 9.82665 11.0467 10.1333 10.9067 10.3733C10.8067 10.5333 10.64 10.62 10.4733 10.62Z" fill="#E65100"/>
</svg>
