<svg width="16" height="16" viewBox="0 0 16 16" fill="none" xmlns="http://www.w3.org/2000/svg">
<path d="M6.00002 7.99998C6.00002 8.44201 5.82443 8.86593 5.51186 9.17849C5.1993 9.49105 4.77538 9.66665 4.33335 9.66665C3.89133 9.66665 3.4674 9.49105 3.15484 9.17849C2.84228 8.86593 2.66669 8.44201 2.66669 7.99998C2.66669 7.55795 2.84228 7.13403 3.15484 6.82147C3.4674 6.50891 3.89133 6.33331 4.33335 6.33331C4.77538 6.33331 5.1993 6.50891 5.51186 6.82147C5.82443 7.13403 6.00002 7.55795 6.00002 7.99998Z" stroke="#E65100"/>
<path d="M9.33333 4.33331L6 6.66665M9.33333 11.6666L6 9.33331" stroke="#E65100" stroke-linecap="round"/>
<path d="M12.6667 12.3333C12.6667 12.7754 12.4911 13.1993 12.1786 13.5118C11.866 13.8244 11.4421 14 11 14C10.558 14 10.1341 13.8244 9.82153 13.5118C9.50897 13.1993 9.33337 12.7754 9.33337 12.3333C9.33337 11.8913 9.50897 11.4674 9.82153 11.1548C10.1341 10.8423 10.558 10.6667 11 10.6667C11.4421 10.6667 11.866 10.8423 12.1786 11.1548C12.4911 11.4674 12.6667 11.8913 12.6667 12.3333ZM12.6667 3.66667C12.6667 4.10869 12.4911 4.53262 12.1786 4.84518C11.866 5.15774 11.4421 5.33333 11 5.33333C10.558 5.33333 10.1341 5.15774 9.82153 4.84518C9.50897 4.53262 9.33337 4.10869 9.33337 3.66667C9.33337 3.22464 9.50897 2.80072 9.82153 2.48816C10.1341 2.17559 10.558 2 11 2C11.4421 2 11.866 2.17559 12.1786 2.48816C12.4911 2.80072 12.6667 3.22464 12.6667 3.66667Z" stroke="#E65100"/>
</svg>
